<svg xmlns="http://www.w3.org/2000/svg" width="16" height="16" viewBox="0 0 16 16"><path d="M12.152 2.4q1.023 0 1.74.385.718.384 1.11 1.108.399.725.45 1.74h-1.334a3.1 3.1 0 0 0-.276-1.116 1.6 1.6 0 0 0-.638-.718q-.413-.253-1.052-.253-.608 0-1.029.203t-.688.609q-.261.406-.385 1.022-.115.617-.115 1.436v1.993q-.001.841.166 1.465.166.624.471 1.03.312.405.747.609.435.196.979.196.616 0 .972-.13.355-.131.543-.299l.312-.267V8.976H12.19v-1.13h3.262v3.936a5.5 5.5 0 0 1-.53.58q-.347.348-.979.616-.63.269-1.652.269a4 4 0 0 1-1.501-.276 3.15 3.15 0 0 1-1.168-.826q-.486-.558-.754-1.385Q8.6 9.926 8.6 8.81V6.83q0-1.11.225-1.943t.667-1.384q.45-.552 1.11-.828.666-.275 1.55-.275"/><path fill-rule="evenodd" d="m5.046 2.546 3.4 10.556H7.084l-.828-2.763H2.69l-.828 2.763H.5L3.9 2.546zm-2.01 6.648h2.876L4.474 4.398z"/></svg>