<svg xmlns="http://www.w3.org/2000/svg" width="160" height="160" viewBox="0 0 160 160"><path d="M117.705 27.102q9.64 0 16.406 3.623 6.768 3.622 10.459 10.459 3.76 6.836 4.239 16.406H136.23q-.478-6.152-2.597-10.528-2.12-4.443-6.016-6.767-3.896-2.393-9.912-2.393-5.742 0-9.707 1.914t-6.494 5.743q-2.46 3.828-3.623 9.638-1.094 5.811-1.094 13.535v18.8q0 7.93 1.572 13.808t4.444 9.707q2.94 3.828 7.041 5.742 4.101 1.846 9.228 1.846 5.81 0 9.16-1.231 3.35-1.23 5.127-2.802a310 310 0 0 0 2.94-2.53V89.103h-18.252V78.44h30.762v37.119q-1.641 2.187-4.991 5.468-3.28 3.282-9.228 5.811-5.947 2.529-15.586 2.529-7.725 0-14.15-2.597-6.358-2.598-11.006-7.793-4.581-5.265-7.11-13.057-2.529-7.861-2.529-18.389V68.87q0-10.459 2.12-18.32 2.118-7.861 6.288-13.057 4.239-5.195 10.459-7.793 6.29-2.597 14.629-2.597M47.354 28.47 79.414 128H66.562l-7.811-26.045H25.155L17.344 128H4.492l32.06-99.531zm-18.96 62.685h27.118L41.953 45.947z"/></svg>