<svg width="16" height="16" viewBox="0 0 16 16" fill="currentColor" xmlns="http://www.w3.org/2000/svg">
<g clip-path="url(#clip0_1_2189)">
<path fill-rule="evenodd" clip-rule="evenodd" d="M14.7822 8C15.4577 8.01709 16 8.57042 16 9.25V14.7822C15.9832 15.447 15.447 15.9832 14.7822 16H8.01758C7.3422 15.9828 6.7998 15.4295 6.7998 14.75V9.25C6.79981 8.57049 7.34221 8.01719 8.01758 8H14.7822ZM8.0498 14.75H14.75V9.25H8.0498V14.75Z" fill="currentColor"/>
<path d="M11.3828 4C12.058 4.01739 12.6006 4.57062 12.6006 5.25V7.375H11.3506V5.25H4.65039V10.75H6.15039V12H4.61816C3.95341 11.9832 3.41721 11.447 3.40039 10.7822V5.25C3.4004 4.57042 3.94271 4.01709 4.61816 4H11.3828Z" fill="currentColor"/>
<path d="M7.98242 0C8.6578 0.0171915 9.2002 0.570482 9.2002 1.25V3.375H7.9502V1.25H1.25V6.75H2.75V8H1.21777C0.55302 7.98318 0.0168223 7.44698 0 6.78223V1.25C9.90938e-09 0.570418 0.542311 0.0170933 1.21777 0H7.98242Z" fill="currentColor"/>
</g>
<defs>
<clipPath id="clip0_1_2189">
<rect width="16" height="16" fill="white"/>
</clipPath>
</defs>
</svg>
