<svg xmlns="http://www.w3.org/2000/svg" width="160" height="160" viewBox="0 0 160 160"><path d="M147.822 80.004c6.755.17 12.178 5.7 12.178 12.496v55l-.004.322c-.168 6.648-5.526 12.006-12.174 12.174l-.322.004h-67l-.322-.004C73.423 159.825 68 154.296 68 147.5v-55c0-6.796 5.423-12.325 12.178-12.496L80.5 80h67zM80.5 147.5h67v-55h-67zm33.322-107.496c6.755.17 12.178 5.7 12.178 12.496v21.25h-12.5V52.5h-67v55h15V120h-15l-.322-.004c-6.648-.168-12.006-5.526-12.174-12.174L34 107.5v-55c0-6.796 5.423-12.325 12.178-12.496L46.5 40h67zm-34-40C86.577.174 92 5.704 92 12.5v21.25H79.5V12.5h-67v55h15V80h-15l-.322-.004C5.53 79.828.172 74.47.004 67.822L0 67.5v-55C0 5.704 5.423.175 12.178.004L12.5 0h67z"/></svg>