<svg xmlns="http://www.w3.org/2000/svg" width="16" height="16" viewBox="0 0 16 16"><path fill-rule="evenodd" d="M14.782 8A1.25 1.25 0 0 1 16 9.25v5.532A1.25 1.25 0 0 1 14.782 16H8.018A1.25 1.25 0 0 1 6.8 14.75v-5.5c0-.68.542-1.233 1.218-1.25zM8.05 14.75h6.7v-5.5h-6.7z"/><path d="M11.383 4A1.25 1.25 0 0 1 12.6 5.25v2.125h-1.25V5.25h-6.7v5.5h1.5V12H4.617A1.25 1.25 0 0 1 3.4 10.782V5.25c0-.68.543-1.233 1.218-1.25z"/><path d="M7.982 0A1.25 1.25 0 0 1 9.2 1.25v2.125H7.95V1.25h-6.7v5.5h1.5V8H1.218A1.25 1.25 0 0 1 0 6.782V1.25C0 .57.542.017 1.218 0z"/></svg>