<svg xmlns="http://www.w3.org/2000/svg" width="16" height="16" viewBox="0 0 16 16"><path d="M11.938 3.939v2.817h1.201V3.939h2.653v-1.22H13.14V0h-1.201v2.72H9.14v1.219z"/><path fill-rule="evenodd" d="M7.973 3.096 6.787 2.39.804 5.92a1.206 1.206 0 0 0 0 2.08l1.52.898-1.52.907a1.225 1.225 0 0 0 0 2.102l6.574 3.92c.383.23.86.23 1.244 0l6.574-3.92a1.225 1.225 0 0 0 0-2.102l-1.52-.907 2.07-1.217-1.189-.71h-.001L8 10.842 1.425 6.96l6.548-3.865Zm-4.45 6.51-2.098 1.251L8 14.777l6.575-3.92-2.098-1.25-3.855 2.275c-.383.226-.86.226-1.244 0z"/></svg>