<svg xmlns="http://www.w3.org/2000/svg" width="16" height="16" viewBox="0 0 16 16"><path d="M14.63 2.38V1.5h-1.25v.88h-.88v1.25h.88v.87h1.25v-.87h.87V2.38h-.87zm-2.1 2.96a5.79 5.79 0 0 0-2.39.6L10 6a.3.3 0 0 1-.3-.3V2.75A1.25 1.25 0 0 0 8.47 1.5H1.75A1.25 1.25 0 0 0 .5 2.75v3A1.51 1.51 0 0 0 2 7.29a1.46 1.46 0 0 0 .6-.14 4.44 4.44 0 0 1 2-.57A1.52 1.52 0 0 1 6.2 8a1.52 1.52 0 0 1-1.6 1.42 4.44 4.44 0 0 1-2-.57 1.46 1.46 0 0 0-.6-.14 1.51 1.51 0 0 0-1.5 1.51v3a1.25 1.25 0 0 0 1.25 1.28h6.72a1.25 1.25 0 0 0 1.25-1.25v-2.92A.3.3 0 0 1 10 10a.27.27 0 0 1 .12 0 5.79 5.79 0 0 0 2.39.6 2.67 2.67 0 1 0 0-5.32zM13.78 9a1.68 1.68 0 0 1-1.25.45 4.61 4.61 0 0 1-1.87-.49 1.57 1.57 0 0 0-.66-.18 1.55 1.55 0 0 0-1.55 1.55v2.92h-6.7v-3A.26.26 0 0 1 2 10h.09l.21.09a5 5 0 0 0 2.3.59A2.77 2.77 0 0 0 7.45 8 2.77 2.77 0 0 0 4.6 5.33a5 5 0 0 0-2.3.59L2.09 6A.16.16 0 0 1 2 6a.26.26 0 0 1-.25-.26v-3h6.72v2.93A1.55 1.55 0 0 0 10 7.22a1.57 1.57 0 0 0 .64-.14 4.61 4.61 0 0 1 1.87-.49 1.68 1.68 0 0 1 1.27.41 1.38 1.38 0 0 1 0 1.92z"/></svg>