<svg xmlns="http://www.w3.org/2000/svg" width="16" height="16" viewBox="0 0 16 16"><path d="M1 14.374c0 .345.28.625.625.625H6.25v-1.25H3.135l2.932-2.933.442-.442-.884-.884-.442.441-2.933 2.933V9.749H1zm13.999 0c0 .345-.28.625-.625.625H9.749v-1.25h3.115l-2.933-2.933-.441-.442.884-.884.442.441 2.933 2.933V9.749h1.25zM1 1.625C1 1.28 1.28 1 1.625 1H6.25v1.25H3.135l2.932 2.933.442.442-.884.884-.442-.442L2.25 3.135V6.25H1zm13.999 0A.625.625 0 0 0 14.374 1H9.749v1.25h3.115L9.931 5.183l-.441.442.884.884.442-.442 2.933-2.932V6.25h1.25z"/></svg>