<svg xmlns="http://www.w3.org/2000/svg" width="16" height="16" viewBox="0 0 16 16"><path d="M6.374 9c.345 0 .625.28.625.625v4.625h-1.25v-3.115l-2.933 2.932-.442.442-.884-.884.442-.442 2.932-2.933H1.75V9zm7.876 1.25h-3.115l2.932 2.933.442.442-.884.884-.442-.442-2.933-2.932v3.115H9V9.625C9 9.28 9.28 9 9.625 9h4.625zM2.816 1.932 5.75 4.864V1.75H7v4.625C7 6.72 6.72 7 6.375 7H1.749V5.75h3.115L1.932 2.816l-.442-.442.884-.884zm11.693.442-.442.442-2.932 2.933h3.115v1.25H9.625A.625.625 0 0 1 9 6.374V1.749h1.25v3.115l2.933-2.932.442-.442z"/></svg>