<svg xmlns="http://www.w3.org/2000/svg" width="16" height="16" viewBox="0 0 16 16"><path d="M325 105h-75a5 5 0 0 1-5-5V25a5 5 0 0 1 10 0v70h70a5 5 0 1 1 0 10"/><path d="M325 154.83a5 5 0 0 1-5-5v-47.76L247.93 30H100a20 20 0 0 0-20 20v98.17a5 5 0 0 1-10 0V50a30 30 0 0 1 30-30h150a5 5 0 0 1 3.54 1.46l75 75A5 5 0 0 1 330 100v49.83a5 5 0 0 1-5 5M300 380H100a30 30 0 0 1-30-30v-75a5 5 0 0 1 10 0v75a20 20 0 0 0 20 20h200a20 20 0 0 0 20-20v-75a5 5 0 0 1 10 0v75a30 30 0 0 1-30 30"/><path d="M275 280H125a5 5 0 0 1 0-10h150a5 5 0 0 1 0 10m-75 50h-75a5 5 0 0 1 0-10h75a5 5 0 1 1 0 10"/><path d="M325 280H75a30 30 0 0 1-30-30v-76.83a30 30 0 0 1 30.19-30l250 1.66a30.09 30.09 0 0 1 29.81 30V250a30 30 0 0 1-30 30M75 153.17a20 20 0 0 0-20 20V250a20 20 0 0 0 20 20h250a20 20 0 0 0 20-20v-75.17a20.06 20.06 0 0 0-19.88-20l-250-1.66Z"/><path d="M192.81 236h-10.27l-4.26-12.7h-20.51l-4.18 12.7h-8.2l17.7-53.32h11.84Zm-17.11-20.39-7.77-23.79-7.77 23.79ZM216.68 236h-9.77l-16.45-53.32h10.16l12.23 40.86 12.5-40.86h8Zm32.32 0h-9.61v-53.32H249Z"/></svg>