<svg xmlns="http://www.w3.org/2000/svg" width="16" height="16" viewBox="0 0 16 16" fill="currentColor">
  <path d="M13 4.2h-3a.2.2 0 0 1-.2-.2V1a.2.2 0 0 1 .4 0v2.8h2.8a.2.2 0 1 1 0 .4Z" />
  <path d="M13 6.19a.2.2 0 0 1-.2-.2V4.09L9.92 1.2H4a.8.8 0 0 0-.8.8v3.93a.2.2 0 0 1-.4 0V2A1.2 1.2 0 0 1 4 .8h6a.2.2 0 0 1 .14.06l3 3A.2.2 0 0 1 13.2 4v1.99a.2.2 0 0 1-.2.2ZM12 15.2H4a1.2 1.2 0 0 1-1.2-1.2v-3a.2.2 0 0 1 .4 0v3a.8.8 0 0 0 .8.8h8a.8.8 0 0 0 .8-.8v-3a.2.2 0 0 1 .4 0v3a1.2 1.2 0 0 1-1.2 1.2Z" />
  <path d="M11 11.2H5a.2.2 0 0 1 0-.4h6a.2.2 0 0 1 0 .4Zm-3 2H5a.2.2 0 0 1 0-.4h3a.2.2 0 1 1 0 .4Z" />
  <path d="M13 11.2H3a1.2 1.2 0 0 1-1.2-1.2V6.93a1.2 1.2 0 0 1 1.21-1.2l10 .07a1.2 1.2 0 0 1 1.19 1.2V10a1.2 1.2 0 0 1-1.2 1.2ZM3 6.13a.8.8 0 0 0-.8.8V10a.8.8 0 0 0 .8.8h10a.8.8 0 0 0 .8-.8V7a.8.8 0 0 0-.8-.8l-10-.07Z" />
  <path d="M7.71 9.44h-.41l-.17-.51H6.29l-.17.51h-.33l.71-2.13h.47Zm-.68-.82L6.71 8l-.31.62ZM8.67 9.44h-.39L7.62 7.31h.41l.49 1.64.5-1.64h.32Zm1.29 0h-.38V7.31h.38Z" />
</svg>