<svg xmlns="http://www.w3.org/2000/svg" width="16" height="16" viewBox="0 0 16 16"><path d="M13 4.2h-3a.2.2 0 0 1-.2-.2V1a.2.2 0 0 1 .4 0v2.8H13a.2.2 0 1 1 0 .4"/><path d="M13 6.19a.2.2 0 0 1-.2-.2V4.08L9.92 1.2H4a.8.8 0 0 0-.8.8v3.93a.2.2 0 0 1-.4 0V2A1.2 1.2 0 0 1 4 .8h6a.2.2 0 0 1 .14.06l3 3a.2.2 0 0 1 .06.14v1.99a.2.2 0 0 1-.2.2m-1 9.01H4A1.2 1.2 0 0 1 2.8 14v-3a.2.2 0 0 1 .4 0v3a.8.8 0 0 0 .8.8h8a.8.8 0 0 0 .8-.8v-3a.2.2 0 0 1 .4 0v3a1.2 1.2 0 0 1-1.2 1.2"/><path d="M11 11.2H5a.2.2 0 0 1 0-.4h6a.2.2 0 0 1 0 .4m-3 2H5a.2.2 0 0 1 0-.4h3a.2.2 0 1 1 0 .4"/><path d="M13 11.2H3A1.2 1.2 0 0 1 1.8 10V6.93a1.2 1.2 0 0 1 1.21-1.2l10 .07A1.2 1.2 0 0 1 14.2 7v3a1.2 1.2 0 0 1-1.2 1.2M3 6.13a.8.8 0 0 0-.8.8V10a.8.8 0 0 0 .8.8h10a.8.8 0 0 0 .8-.8V7a.8.8 0 0 0-.8-.8z"/><path d="M7.71 9.44H7.3l-.17-.51h-.82l-.17.51h-.33l.71-2.13h.47Zm-.68-.82-.31-.95-.31.95Zm1.64.82h-.39l-.66-2.13h.41l.49 1.63.5-1.63h.32Zm1.29 0h-.38V7.31h.38Z"/></svg>