<svg xmlns="http://www.w3.org/2000/svg" width="16" height="16" viewBox="0 0 16 16"><path d="M13 4.2h-3a.2.2 0 0 1-.2-.2V1a.2.2 0 0 1 .4 0v2.8H13a.2.2 0 1 1 0 .4"/><path d="M13 6.193a.2.2 0 0 1-.2-.2V4.087L9.917 1.2H4a.8.8 0 0 0-.8.8v3.927a.2.2 0 0 1-.4 0V2A1.2 1.2 0 0 1 4 .8h6a.2.2 0 0 1 .142.058l3 3A.2.2 0 0 1 13.2 4v1.993a.2.2 0 0 1-.2.2M12 15.2H4A1.2 1.2 0 0 1 2.8 14v-3a.2.2 0 0 1 .4 0v3a.8.8 0 0 0 .8.8h8a.8.8 0 0 0 .8-.8v-3a.2.2 0 0 1 .4 0v3a1.2 1.2 0 0 1-1.2 1.2"/><path d="M11 11.2H5a.2.2 0 0 1 0-.4h6a.2.2 0 0 1 0 .4m-3 2H5a.2.2 0 0 1 0-.4h3a.2.2 0 1 1 0 .4"/><path d="M13 11.2H3A1.2 1.2 0 0 1 1.8 10V6.927a1.2 1.2 0 0 1 1.208-1.2l10 .066a1.204 1.204 0 0 1 1.192 1.2V10a1.2 1.2 0 0 1-1.2 1.2M3 6.127a.8.8 0 0 0-.8.8V10a.8.8 0 0 0 .8.8h10a.8.8 0 0 0 .8-.8V6.993a.8.8 0 0 0-.795-.8l-10-.066Z"/><path d="M7.712 9.44h-.411l-.17-.508h-.82l-.167.508h-.328l.708-2.133h.474Zm-.684-.816-.311-.951-.311.951Zm1.639.816h-.391L7.62 7.307h.406l.489 1.634.5-1.634h.32Zm1.293 0h-.384V7.307h.384Z"/></svg>