<svg xmlns="http://www.w3.org/2000/svg" width="16" height="16" viewBox="0 0 16 16"><path d="M14.24 13.25H1.75V6.5h4.13c-.07.27-.1.55-.1.84 0 2.04 1.77 3.7 3.94 3.7.99 0 1.9-.35 2.59-.92l2.37 2.07.82-.94-2.37-2.07c.33-.54.53-1.17.53-1.84 0-2.04-1.77-3.7-3.94-3.7-1.35 0-2.54.64-3.25 1.61H1.75v-2.5h12.49v.41h1.25v-.41c0-.69-.56-1.25-1.25-1.25H1.75C1.06 1.5.5 2.06.5 2.75v10.5c0 .69.56 1.25 1.25 1.25h12.49c.69 0 1.25-.56 1.25-1.25v-.41h-1.25v.41zM9.72 4.89c1.48 0 2.69 1.1 2.69 2.45S11.2 9.79 9.72 9.79s-2.69-1.1-2.69-2.45 1.21-2.45 2.69-2.45z"/></svg>