<svg xmlns="http://www.w3.org/2000/svg" width="16" height="16" viewBox="0 0 16 16"><path fill-rule="evenodd" d="M5.028 6.51c-.473-1.048.601-2.126 1.65-1.656l8.589 3.85c.926.415.98 1.675.168 2.191l-.174.092-2.225.982 2.848 2.847L15 15.7l-2.854-2.853-.966 2.21-.092.173c-.48.76-1.61.768-2.099.013l-.093-.174zm5.007 8.046 1.035-2.366.104-.21a2.5 2.5 0 0 1 1.178-1.075l2.404-1.06-8.589-3.85z"/><path d="M14.782 1.5A1.25 1.25 0 0 1 16 2.75V6.4h-1.25V2.75H1.25v7H5V11H1.218A1.25 1.25 0 0 1 0 9.782V2.75c0-.68.542-1.233 1.218-1.25z"/></svg>