<svg xmlns="http://www.w3.org/2000/svg" width="160" height="160" viewBox="0 0 160 160"><path d="M50.282 65.1c-4.736-10.483 6.008-21.26 16.504-16.554l85.88 38.49c9.726 4.36 9.84 18.034.393 22.631l-.458.212-22.233 9.811 28.471 28.471L150 157l-28.529-28.529-9.671 22.092-.21.458c-4.495 9.313-17.812 9.392-22.417.133l-.215-.456zm50.067 80.453 10.35-23.65.242-.534a25 25 0 0 1 12.033-12.069l.533-.243 24.047-10.615-85.88-38.488zm47.473-130.55C154.577 15.176 160 20.705 160 27.5V64h-12.5V27.5h-135v70H50V110H12.5l-.322-.004C5.53 109.828.172 104.47.004 97.822L0 97.5v-70c0-6.796 5.423-12.325 12.178-12.496L12.5 15h135z"/></svg>