<svg xmlns="http://www.w3.org/2000/svg" width="16" height="16" viewBox="0 0 16 16"><path d="M13.76 0H2.222a.8.8 0 0 0-.804.804v14.392a.8.8 0 0 0 .804.804h11.553a.8.8 0 0 0 .804-.804V.804A.8.8 0 0 0 13.774 0zm-.428 14.755H2.673V1.254h10.659z"/><path d="M5.738 10.245a.882.882 0 1 0-.405-1.716.882.882 0 0 0 .405 1.716m4.95.001a.882.882 0 1 0-.405-1.716.882.882 0 0 0 .405 1.716m-2.658.023a.882.882 0 1 0 0-1.763.882.882 0 0 0 0 1.763m-1.685 1.949a.882.882 0 1 0-1.629-.675.882.882 0 0 0 1.63.675m4.272.548a.882.882 0 1 0-.283-1.741.882.882 0 0 0 .282 1.74m-2.587.007a.882.882 0 1 0 0-1.764.882.882 0 0 0 0 1.764M6.337 7.217a.882.882 0 1 0-1.629-.675.882.882 0 0 0 1.63.675m4.283.543a.882.882 0 1 0-.282-1.74.882.882 0 0 0 .282 1.74m-2.591.007a.882.882 0 1 0 0-1.764.882.882 0 0 0 0 1.764m3.332-4.538H4.646V4.5h6.716z"/></svg>