<svg xmlns="http://www.w3.org/2000/svg" width="16" height="16" viewBox="0 0 16 16"><path d="M14.25 2.5h-.75v-1h-1.25v1h-8.5v-1H2.5v1h-.75A1.25 1.25 0 0 0 .5 3.75v9.5a1.25 1.25 0 0 0 1.25 1.25h12.5a1.25 1.25 0 0 0 1.25-1.25v-9.5a1.25 1.25 0 0 0-1.25-1.25zM1.75 3.75h12.5V5H1.75V3.75zm0 9.5v-7h12.5v7z"/><path d="M3 8h1.1v1.2H3zm0 2.4h1.1v1.2H3zM11.8 8h1.1v1.2h-1.1zm0 2.4h1.1v1.2h-1.1zM9.6 8h1.1v1.2H9.6zm0 2.4h1.1v1.2H9.6zM7.4 8h1.1v1.2H7.4zm0 2.4h1.1v1.2H7.4zM5.2 8h1.1v1.2H5.2zm0 2.4h1.1v1.2H5.2z"/></svg>