<svg xmlns="http://www.w3.org/2000/svg" width="16" height="16" viewBox="0 0 16 16"><path d="M15 3.5h-4l-.22-.65A1.24 1.24 0 0 0 9.6 2H6.4a1.24 1.24 0 0 0-1.18.85L5 3.5H1a1 1 0 0 0-1 1V13a1 1 0 0 0 1 1h14a1 1 0 0 0 1-1V4.5a1 1 0 0 0-1-1zm-.25 9.25H1.25v-8H5.9l.5-1.5h3.2l.5 1.5h4.65z"/><path d="M8 6a2.59 2.59 0 0 0-2.67 2.5A2.59 2.59 0 0 0 8 11a2.59 2.59 0 0 0 2.67-2.5A2.59 2.59 0 0 0 8 6zm0 3.75A1.35 1.35 0 0 1 6.58 8.5 1.35 1.35 0 0 1 8 7.25 1.35 1.35 0 0 1 9.42 8.5 1.35 1.35 0 0 1 8 9.75z"/><ellipse cx="12.84" cy="6.63" rx=".67" ry=".63"/></svg>