<svg width="16" height="16" viewBox="0 0 16 16" fill="currentColor" xmlns="http://www.w3.org/2000/svg">
<path d="M15.3477 11.1416L15.3789 11.1641C15.5303 11.2799 15.6213 11.4593 15.624 11.6514C15.6269 11.8561 15.5289 12.0488 15.3623 12.168L11.4209 14.9873L10.6934 13.9707L12.96 12.3496H4.7998V11.0996H13.0459L10.8066 9.59375L11.5039 8.55664L15.3477 11.1416Z" fill="currentColor"/>
<path fill-rule="evenodd" clip-rule="evenodd" d="M6.18262 1.5C6.8579 1.51729 7.40039 2.07055 7.40039 2.75V5.34961L7.39941 5.38184C7.3826 6.04646 6.84719 6.58259 6.18262 6.59961H1.21777C0.55302 6.58279 0.0168223 6.04659 0 5.38184V2.75C5.11338e-08 2.07042 0.542311 1.51709 1.21777 1.5H6.18262ZM1.25 5.34961H6.15039V2.75H1.25V5.34961Z" fill="currentColor"/>
<path fill-rule="evenodd" clip-rule="evenodd" d="M14.7822 1.5C15.4577 1.51709 16 2.07042 16 2.75V5.38184C15.9832 6.04659 15.447 6.58279 14.7822 6.59961H9.81738C9.15281 6.58259 8.6174 6.04646 8.60059 5.38184L8.59961 5.34961V2.75C8.59961 2.07055 9.1421 1.51729 9.81738 1.5H14.7822ZM9.84961 5.34961H14.75V2.75H9.84961V5.34961Z" fill="currentColor"/>
</svg>
