<svg xmlns="http://www.w3.org/2000/svg" width="16" height="16" viewBox="0 0 16 16"><path d="m15.348 11.142.03.022a.625.625 0 0 1-.016 1.004l-3.941 2.82-.728-1.017 2.267-1.621H4.8V11.1h8.246l-2.24-1.506.698-1.037z"/><path fill-rule="evenodd" d="M6.183 1.5A1.25 1.25 0 0 1 7.4 2.75v2.632A1.25 1.25 0 0 1 6.182 6.6H1.218A1.25 1.25 0 0 1 0 5.382V2.75c0-.68.542-1.233 1.218-1.25zM1.25 5.35h4.9v-2.6h-4.9zM14.782 1.5A1.25 1.25 0 0 1 16 2.75v2.632A1.25 1.25 0 0 1 14.782 6.6H9.817a1.25 1.25 0 0 1-1.216-1.218L8.6 5.35v-2.6c0-.68.542-1.233 1.217-1.25zM9.85 5.35h4.9v-2.6h-4.9z"/></svg>