<svg xmlns="http://www.w3.org/2000/svg" width="160" height="160" viewBox="0 0 160 160"><path d="m153.478 111.414.311.224a6.248 6.248 0 0 1-.163 10.047l-39.42 28.19-7.271-10.167L129.6 123.5H48V111h82.462l-22.4-15.061 6.974-10.374zm-91.656-96.41C68.577 15.174 74 20.704 74 27.5v26l-.004.322c-.168 6.648-5.526 12.006-12.174 12.174L61.5 66h-49l-.322-.004C5.53 65.828.172 60.47.004 53.822L0 53.5v-26c0-6.796 5.423-12.325 12.178-12.496L12.5 15h49zm86 0c6.755.17 12.178 5.7 12.178 12.496v26l-.004.322c-.168 6.648-5.526 12.006-12.174 12.174L147.5 66h-49l-.322-.004c-6.648-.168-12.006-5.526-12.174-12.174L86 53.5v-26c0-6.796 5.423-12.325 12.178-12.496L98.5 15h49zM98.5 53.5h49v-26h-49zm-86 0h49v-26h-49z"/></svg>