<svg width="16" height="16" viewBox="0 0 16 16" xmlns="http://www.w3.org/2000/svg" fill="currentColor">
<path d="M14.224 1.5C15.2601 1.50026 16.1 2.34046 16.1 3.37695V14.5H14.849V3.37695C14.849 3.03156 14.5692 2.75124 14.224 2.75098H2.97693C2.63148 2.75098 2.35095 3.0314 2.35095 3.37695V14.5H1.09998V3.37695C1.09998 2.3403 1.94059 1.5 2.97693 1.5H14.224ZM8.59998 7.47363C10.3204 7.47365 11.6652 8.92858 11.6654 10.6592V14.5H10.4154V10.6592C10.4152 9.56209 9.57436 8.72462 8.59998 8.72461C7.62559 8.72462 6.78571 9.56209 6.78552 10.6592V14.5H5.53552V10.6592C5.53571 8.92858 6.87955 7.47365 8.59998 7.47363ZM14.098 5.66016H3.08923V4.3584H14.098V5.66016Z"/>
</svg>