<svg xmlns="http://www.w3.org/2000/svg" width="16" height="16" viewBox="0 0 16 16"><path d="M14.75 2.5H1.25A1.25 1.25 0 0 0 0 3.75v8.5a1.25 1.25 0 0 0 1.25 1.25h13.5A1.25 1.25 0 0 0 16 12.25v-8.5a1.25 1.25 0 0 0-1.25-1.25zM1.25 3.75h2a1.86 1.86 0 0 1-2 1.75zm0 8.5V10.5a1.86 1.86 0 0 1 2 1.75zm13.5 0H12.8a1.86 1.86 0 0 1 1.95-1.75zm0-3a3.1 3.1 0 0 0-3.2 3h-7.1a3.1 3.1 0 0 0-3.2-3v-2.5a3.1 3.1 0 0 0 3.2-3h7.1a3.1 3.1 0 0 0 3.2 3zm0-3.75a1.86 1.86 0 0 1-1.95-1.75h1.95z"/><path d="M8 5a3.1 3.1 0 0 0-3.2 3A3.1 3.1 0 0 0 8 11a3.1 3.1 0 0 0 3.2-3A3.1 3.1 0 0 0 8 5zm0 4.75A1.86 1.86 0 0 1 6.05 8 1.86 1.86 0 0 1 8 6.25 1.86 1.86 0 0 1 10 8a1.86 1.86 0 0 1-2 1.75z"/></svg>