<svg xmlns="http://www.w3.org/2000/svg" width="16" height="16" viewBox="0 0 16 16"><path d="M11.004 11.248H5v-1.25h6.004zm0-2.5H5v-1.25h6.004z"/><path fill-rule="evenodd" d="M10.001 0c.69 0 1.25.56 1.25 1.25v.755h1.001a1.25 1.25 0 0 1 1.241 1.122l.007.128v11.5a1.25 1.25 0 0 1-1.122 1.243l-.128.007h-8.5l-.128-.007A1.25 1.25 0 0 1 2.5 14.755v-11.5l.007-.128A1.25 1.25 0 0 1 3.75 2.005h1V1.25c0-.647.492-1.18 1.122-1.243L6 0zM3.75 14.755h8.5v-11.5h-.999v.493l-.006.128A1.25 1.25 0 0 1 10 4.998L5.998 4.99A1.25 1.25 0 0 1 4.75 3.74v-.485h-1zM6 3.74l4.001.008V1.25H6z"/></svg>