<svg xmlns="http://www.w3.org/2000/svg" width="16" height="16" viewBox="0 0 16 16"><path d="M15.32 3H10V2a2 2 0 0 0-4 0v1H.68a.69.69 0 0 0-.32 1.29L1.7 5v.58a1.25 1.25 0 0 0 .6 1.07L5 8.28v4H3.75A1.25 1.25 0 0 0 2.5 13.5V16h11v-2.5a1.25 1.25 0 0 0-1.25-1.25H11v-4l2.68-1.58a1.26 1.26 0 0 0 .62-1.08V5l1.34-.71A.69.69 0 0 0 15.32 3zM5 6.79 3 5.58V4.25h2zM7.25 2a.75.75 0 0 1 1.5 0v1h-1.5zm-1 2.25H9.7v4.13a3.62 3.62 0 0 1-3.45-3.9zm0 3.75a3.59 3.59 0 0 0 .39.39 5.36 5.36 0 0 0 3.11 1.25v2.61h-3.5zm6 5.47v1.25h-8.5V13.5h8.5zm.8-7.93L11 6.78V4.25h2.05z"/></svg>