<svg xmlns="http://www.w3.org/2000/svg" width="16" height="16" viewBox="0 0 16 16"><path d="M.63 11.08zm.21.41v-.1zm.23.38L1 11.68zM1 11.68l-.11-.19zm-.21-.29c-.06-.1-.11-.21-.16-.31.05.1.1.21.16.31zm.32.54v-.06z"/><path d="m11.26 12.63 1.83 1.09a7.34 7.34 0 0 0 1-.94 7.48 7.48 0 0 0 1.56-2.86l-1.74-1A5.29 5.29 0 0 0 14 8a5.29 5.29 0 0 0-.08-.9l1.74-1a7.45 7.45 0 0 0-1.33-2.58 7.54 7.54 0 0 0-1.24-1.22l-1.83 1.04a6 6 0 0 0-1.11-.53v-2A8.55 8.55 0 0 0 7.94.53a8.39 8.39 0 0 0-2.26.3v2a7.23 7.23 0 0 0-1.12.54L2.78 2.28A7.46 7.46 0 0 0 .2 6.06l1.72 1a5.29 5.29 0 0 0-.08.9 5.29 5.29 0 0 0 .08.9l-1.73 1a8 8 0 0 0 .43 1.15c.05.1.1.21.16.31v.1l.11.19.12.19v.06a7.69 7.69 0 0 0 1.64 1.78l1.81-1.08a7.23 7.23 0 0 0 1.12.54v2a8.39 8.39 0 0 0 2.26.31 8.56 8.56 0 0 0 2.22-.3v-2a6 6 0 0 0 1.2-.48zm-2.39 1.52a7.57 7.57 0 0 1-.95.06 7.73 7.73 0 0 1-1-.06v-1.69a4.92 4.92 0 0 1-2.53-1.27l-1.54.92a6.22 6.22 0 0 1-1.08-1.61l1.56-.93a4.27 4.27 0 0 1 0-3.17l-1.56-.92a6.11 6.11 0 0 1 1.12-1.62l1.56.93A5 5 0 0 1 7 3.53V1.82a7.73 7.73 0 0 1 1-.06 7.57 7.57 0 0 1 .95.06v1.72a4.9 4.9 0 0 1 2.4 1.26l1.59-.94a6.31 6.31 0 0 1 1.11 1.62l-1.6.94a4.35 4.35 0 0 1 .3 1.58 4.44 4.44 0 0 1-.29 1.55l1.56.93a6.43 6.43 0 0 1-1.11 1.61l-1.58-.93a5 5 0 0 1-2.49 1.28z"/><path d="M7.92 5.49A2.59 2.59 0 0 0 5.25 8a2.59 2.59 0 0 0 2.67 2.51A2.6 2.6 0 0 0 10.6 8a2.6 2.6 0 0 0-2.68-2.51zM8 9.2A1.35 1.35 0 0 1 6.55 8 1.35 1.35 0 0 1 8 6.7 1.35 1.35 0 0 1 9.39 8 1.35 1.35 0 0 1 8 9.2z"/></svg>