<svg xmlns="http://www.w3.org/2000/svg" width="16" height="16" viewBox="0 0 16 16"><path d="M14.671 1.371a2.36 2.36 0 0 1 0 3.34l-1.362 1.362a.52.52 0 0 0-.151.336l-.035.582a1.88 1.88 0 0 1-1.616 1.751l-.022.003a.38.38 0 0 1-.281-.094l-.016-.015-.335-.335-5.151 5.15-.045.044c-.46.442-1.05.727-1.683.814a.6.6 0 0 0-.285.119l-.495.378-.05.036c-.519.361-1.293.25-1.767-.177l-.04-.047C.948 14.146.85 13.4 1.2 12.898l.036-.05.378-.495a.6.6 0 0 0 .112-.246l.007-.039a3.02 3.02 0 0 1 .814-1.683l.043-.045 5.151-5.15-.335-.336a.38.38 0 0 1-.109-.297l.003-.022a1.88 1.88 0 0 1 1.71-1.613l.04-.003.583-.035a.52.52 0 0 0 .336-.15L11.33 1.37a2.36 2.36 0 0 1 3.34 0M8.625 6.073l-5.15 5.151a1.77 1.77 0 0 0-.503 1.013c-.065.472-.533 1.007-.817 1.367-.035.035-.106.177 0 .283s.248.035.283 0c.358-.279.903-.753 1.367-.817l.071-.01c.356-.064.685-.236.942-.492l5.15-5.151zm5.162-3.818a1.11 1.11 0 0 0-1.572 0l-1.363 1.362a1.77 1.77 0 0 1-1.144.515l-.582.035a.63.63 0 0 0-.432.208l2.973 2.973a.63.63 0 0 0 .208-.432l.035-.582a1.77 1.77 0 0 1 .515-1.144l1.362-1.363a1.11 1.11 0 0 0 0-1.572"/></svg>