<svg xmlns="http://www.w3.org/2000/svg" width="16" height="16" viewBox="0 0 16 16"><path d="M8.005 1.24c3.72 0 6.735 1.08 6.735 2.8v.036a1 1 0 0 1-.015.152v8.536c0 .554-.358.968-.733 1.246-.387.286-.906.518-1.492.702-1.18.37-2.77.588-4.5.588s-3.32-.219-4.5-.588c-.586-.184-1.106-.416-1.493-.702-.375-.278-.732-.692-.732-1.246V4.136q-.004-.048-.005-.096c0-1.72 3.015-2.8 6.735-2.8m5.47 10.261a6.4 6.4 0 0 1-.983.39c-1.176.367-2.764.585-4.492.585s-3.316-.218-4.492-.584a6.4 6.4 0 0 1-.983-.391v1.259c.002.01.025.097.226.246.23.17.604.35 1.122.513 1.028.322 2.488.53 4.127.53s3.098-.208 4.126-.53c.518-.163.892-.342 1.123-.513.201-.15.224-.236.226-.246zm0-2.948c-.29.154-.62.29-.975.406-1.18.387-2.77.616-4.5.616s-3.321-.23-4.5-.616a6 6 0 0 1-.975-.406v1.475a.9.9 0 0 0 .21.203c.234.173.61.173 1.13.515 1.032.321 2.494.53 4.135.53s3.103-.209 4.135-.53c.52-.342.896-.342 1.13-.515a.9.9 0 0 0 .21-.203zm-10.95-1.51a.8.8 0 0 0 .222.236c.234.181.61.37 1.127.54 1.029.338 2.488.556 4.126.556s3.098-.218 4.127-.556c.517-.17.892-.359 1.126-.54a.8.8 0 0 0 .222-.236v-1.37c-1.223.706-3.217 1.167-5.47 1.167-2.26 0-4.258-.464-5.48-1.174zm5.48-4.553c-1.76 0-3.274.258-4.3.666-1.08.43-1.177.817-1.184.877.007.024.04.092.155.205.19.186.528.411 1.047.627 1.032.43 2.546.725 4.282.725s3.25-.295 4.282-.725c.52-.216.857-.44 1.047-.627a.6.6 0 0 0 .155-.205c-.007-.06-.105-.447-1.184-.877-1.026-.408-2.54-.666-4.3-.666"/></svg>