<svg xmlns="http://www.w3.org/2000/svg" width="16" height="16" viewBox="0 0 16 16"><path d="M8 .5c4.413 0 8 3.365 8 7.5s-3.587 7.5-8 7.5S0 12.135 0 8 3.587.5 8 .5m0 1.25C4.2 1.75 1.25 4.63 1.25 8S4.2 14.25 8 14.25s6.75-2.88 6.75-6.25S11.8 1.75 8 1.75m2.679 2.88-4.28 7.414-1.083-.625 4.28-7.413zm-.348 3.8c.952 0 1.625.83 1.625 1.725s-.673 1.725-1.625 1.725-1.625-.83-1.625-1.725.673-1.725 1.625-1.725m0 1.25c-.152 0-.375.156-.375.475 0 .32.223.475.375.475s.375-.155.375-.475-.223-.475-.375-.475M5.664 4.17c.952 0 1.625.83 1.625 1.725s-.673 1.724-1.625 1.724S4.04 6.79 4.04 5.895c0-.896.673-1.725 1.625-1.725m0 1.25c-.152 0-.375.155-.375.475s.223.474.375.474.375-.155.375-.474c0-.32-.223-.475-.375-.475"/></svg>