<svg xmlns="http://www.w3.org/2000/svg" width="16" height="16" viewBox="0 0 16 16"><path d="m15.18 6.14-3.81-4.23a1.24 1.24 0 0 0-.93-.41H1.75A1.25 1.25 0 0 0 .5 2.75v10.5a1.25 1.25 0 0 0 1.25 1.25h12.5a1.25 1.25 0 0 0 1.25-1.25V7a1.24 1.24 0 0 0-.32-.86zm-6-3.39v2H4.25v-2zm5.05 10.5H1.75V2.75H3v2A1.25 1.25 0 0 0 4.25 6H9.2a1.25 1.25 0 0 0 1.25-1.25v-2L14.25 7z"/><path d="M8 7.56a2.43 2.43 0 0 0-2.5 2.35A2.43 2.43 0 0 0 8 12.25a2.43 2.43 0 0 0 2.5-2.34A2.43 2.43 0 0 0 8 7.56zM8 11a1.18 1.18 0 0 1-1.25-1.09A1.18 1.18 0 0 1 8 8.81a1.18 1.18 0 0 1 1.25 1.1A1.18 1.18 0 0 1 8 11z"/></svg>