<svg width="16" height="16" viewBox="0 0 16 16" fill="currentColor" xmlns="http://www.w3.org/2000/svg">
<path d="M3.22992 4.93929C3.78053 4.38875 4.70177 4.41711 5.28754 5.00277C5.8733 5.58854 5.90159 6.50974 5.35101 7.06039C4.80037 7.61103 3.87918 7.5827 3.29339 6.99691C2.70771 6.41112 2.67931 5.4899 3.22992 4.93929Z"/>
<path fill-rule="evenodd" clip-rule="evenodd" d="M7.26019 1.7098C7.58656 1.70386 7.90244 1.82587 8.14007 2.04965L12.2192 6.12875C12.3376 6.24671 12.4314 6.38747 12.4955 6.54183C12.5596 6.69618 12.5932 6.86202 12.5932 7.02914C12.5931 7.19624 12.5597 7.36213 12.4955 7.51644C12.4314 7.67063 12.3375 7.8107 12.2192 7.92855L6.21918 13.9286C6.09741 14.0464 5.95315 14.1392 5.79535 14.201C5.63754 14.2628 5.46866 14.2928 5.29925 14.2889C5.1361 14.2897 4.9737 14.2579 4.82269 14.1961C4.67181 14.1344 4.5341 14.0434 4.41839 13.9286L0.340269 9.85043C0.113889 9.61028 -0.00817577 9.28972 0.000425595 8.9598V2.9598C0.000447977 2.79489 0.0327241 2.63157 0.0961287 2.47933C0.159571 2.32702 0.252432 2.18831 0.369566 2.07211C0.486654 1.95598 0.626018 1.86478 0.778746 1.80258C0.931559 1.74035 1.0952 1.70848 1.26019 1.7098H7.26019ZM1.25043 8.96957L5.31879 13.0184L11.2993 7.0184L7.25043 2.96957H1.25043V8.96957Z"/>
<path d="M10.6664 1.7098C10.9927 1.70393 11.3088 1.82692 11.5463 2.05062L15.6244 6.12875C15.7429 6.24668 15.8376 6.38749 15.9018 6.54183C15.9659 6.69614 15.9984 6.86206 15.9985 7.02914C15.9984 7.19628 15.9659 7.36209 15.9018 7.51644C15.8376 7.67084 15.7429 7.81058 15.6244 7.92855L9.62445 13.9286C9.50261 14.0465 9.35853 14.1392 9.20062 14.201C9.04279 14.2627 8.87395 14.2928 8.70453 14.2889C8.54156 14.2897 8.37978 14.2578 8.22894 14.1961C8.07812 14.1344 7.94031 14.0434 7.82464 13.9286L7.81683 13.9207L8.72113 13.0155L8.72503 13.0194L10.7182 11.0194L14.7094 7.02816L14.7026 7.02133L14.7045 7.01937L10.6557 2.97054H10.6518L9.39105 1.7098H10.6664Z"/>
</svg>
