<svg xmlns="http://www.w3.org/2000/svg" width="16" height="16" viewBox="0 0 16 16"><path d="M11.68 4.8c-.16-.07-.33-.13-.51-.19l1.91-3.3L12 .69 9.9 4.31A11.61 11.61 0 0 0 8 4.16a11.88 11.88 0 0 0-1.82.14L4.1.69 3 1.31l1.91 3.28a4.53 4.53 0 0 0-.59.21c-1.58.64-1.82 1.52-1.82 2v5.9c0 .46.24 1.34 1.82 2a9.94 9.94 0 0 0 3.68.61 9.94 9.94 0 0 0 3.68-.63c1.58-.65 1.82-1.53 1.82-2V6.79c0-.47-.24-1.35-1.82-1.99zM4.79 6a6.77 6.77 0 0 1 .76-.25l.79 1.37 1.08-.63-.56-1A10.6 10.6 0 0 1 8 5.41a11.67 11.67 0 0 1 1.23.07l-.56 1 1.08.63.78-1.34c1.1.3 1.72.76 1.72 1.06s-.32.54-1 .83a8.72 8.72 0 0 1-3.25.5c-2.64 0-4.25-.89-4.25-1.37 0-.21.32-.54 1.04-.79zm6.42 7.57a8.72 8.72 0 0 1-3.21.49c-2.64 0-4.25-.89-4.25-1.37v-1.23a6.18 6.18 0 0 0 .57.27 9.94 9.94 0 0 0 3.68.63 9.94 9.94 0 0 0 3.68-.63 6.18 6.18 0 0 0 .57-.27v1.23c0 .2-.32.54-1.04.83zm0-2.95a8.72 8.72 0 0 1-3.21.49c-2.64 0-4.25-.89-4.25-1.37V8.51a6.18 6.18 0 0 0 .57.27A9.94 9.94 0 0 0 8 9.41a9.94 9.94 0 0 0 3.68-.63 6.18 6.18 0 0 0 .57-.27v1.23c0 .2-.32.54-1.04.83z"/></svg>