<svg xmlns="http://www.w3.org/2000/svg" width="16" height="16" viewBox="0 0 16 16"><path d="M11.68 4.8c-.16-.07-.33-.13-.51-.19l1.91-3.3L12 .69 9.9 4.31A11.6 11.6 0 0 0 8 4.16a12 12 0 0 0-1.82.14L4.1.69 3 1.31l1.91 3.28a4.5 4.5 0 0 0-.59.21c-1.58.64-1.82 1.52-1.82 2v5.9c0 .46.24 1.34 1.82 2a9.9 9.9 0 0 0 3.68.61 9.9 9.9 0 0 0 3.68-.63c1.58-.65 1.82-1.53 1.82-2V6.79c0-.47-.24-1.35-1.82-1.99M4.79 6a7 7 0 0 1 .76-.25l.79 1.37 1.08-.63-.56-1A11 11 0 0 1 8 5.41a12 12 0 0 1 1.23.07l-.56 1 1.08.63.78-1.34c1.1.3 1.72.76 1.72 1.06s-.32.54-1 .83a8.7 8.7 0 0 1-3.25.5c-2.64 0-4.25-.89-4.25-1.37 0-.21.32-.54 1.04-.79m6.42 7.57a8.7 8.7 0 0 1-3.21.49c-2.64 0-4.25-.89-4.25-1.37v-1.23a6 6 0 0 0 .57.27 9.9 9.9 0 0 0 3.68.63 9.9 9.9 0 0 0 3.68-.63 6 6 0 0 0 .57-.27v1.23c0 .2-.32.54-1.04.83zm0-2.95a8.7 8.7 0 0 1-3.21.49c-2.64 0-4.25-.89-4.25-1.37V8.51a6 6 0 0 0 .57.27A9.9 9.9 0 0 0 8 9.41a9.9 9.9 0 0 0 3.68-.63 6 6 0 0 0 .57-.27v1.23c0 .2-.32.54-1.04.83z"/></svg>