<svg xmlns="http://www.w3.org/2000/svg" width="16" height="16" viewBox="0 0 16 16"><path d="M8 2.5a9.77 9.77 0 0 0-2.53.32l1 1.05A8.78 8.78 0 0 1 8 3.75 6.91 6.91 0 0 1 13.4 6a7.2 7.2 0 0 1 1.27 2 7.2 7.2 0 0 1-1.27 2c-.12.13-.24.26-.37.38l.89.89A8.24 8.24 0 0 0 16 8a8.11 8.11 0 0 0-8-5.5zm5 9.56-.9-.9-6.97-6.91-1-1-1.19-1.19-.88.88 1 1A8.25 8.25 0 0 0 0 8a8.11 8.11 0 0 0 8 5.5 9.05 9.05 0 0 0 3.82-.79l1.24 1.23.88-.88-1-1zM6.66 7.54l1.67 1.67a1.47 1.47 0 0 1-.36 0A1.35 1.35 0 0 1 6.55 8a1.07 1.07 0 0 1 .11-.46zM8 12.25A6.91 6.91 0 0 1 2.6 10a7.2 7.2 0 0 1-1.27-2A7.2 7.2 0 0 1 2.6 6 6.49 6.49 0 0 1 4 4.84l1.74 1.79A2.33 2.33 0 0 0 5.3 8 2.59 2.59 0 0 0 8 10.5a2.78 2.78 0 0 0 1.32-.33l1.58 1.58a8 8 0 0 1-2.9.5z"/></svg>