<svg xmlns="http://www.w3.org/2000/svg" width="16" height="16" viewBox="0 0 16 16" fill="currentColor">
  <path d="M8 13.501c-4.922 0-7.169-4.781-7.479-5.5C.837 7.28 3.072 2.501 8 2.501c4.922 0 7.169 4.781 7.479 5.5-.316.721-2.551 5.5-7.479 5.5z"/>
  <circle cx="8" cy="8.001" r="3.5"/>
  <circle cx="8" cy="8.002" r="1.5"/>
  <g>
    <path d="M15.984 7.911c-.004-.009-.064-.162-.185-.412C15.149 6.157 12.755 2.001 8 2.001 2.358 2.001.04 7.852.017 7.911c-.022.058-.022.122 0 .18.023.059 2.342 5.91 7.983 5.91 4.753 0 7.147-4.151 7.797-5.496.122-.252.182-.405.186-.414.022-.058.022-.122 0-.18zM8 13.501c-4.922 0-7.169-4.781-7.479-5.5C.837 7.28 3.072 2.501 8 2.501c4.922 0 7.169 4.781 7.479 5.5-.316.721-2.551 5.5-7.479 5.5z"/>
    <path d="M8 4.002c-2.209 0-4 1.791-4 4s1.791 4 4 4 4-1.791 4-4-1.791-4-4-4zm0 7.5c-1.933 0-3.5-1.567-3.5-3.5s1.567-3.5 3.5-3.5 3.5 1.567 3.5 3.5-1.567 3.5-3.5 3.5z"/>
    <path d="M8 6.002c-1.105 0-2 .896-2 2s.896 2 2 2 2-.896 2-2-.896-2-2-2zm0 3.5c-.828 0-1.5-.672-1.5-1.5s.672-1.5 1.5-1.5 1.5.672 1.5 1.5-.672 1.5-1.5 1.5z"/>
    <path d="M8 7.001c-.138 0-.25.112-.25.25s.112.25.25.25c.276 0 .5.224.5.5 0 .138.112.25.25.25s.25-.112.25-.25c0-.552-.448-1-1-1z"/>
  </g>
</svg>