<svg xmlns="http://www.w3.org/2000/svg" width="16" height="16" viewBox="0 0 16 16"><path d="M9.32 15.653a.81.81 0 0 1-.086-.855c.176-.342.245-.733.2-1.118a2.1 2.1 0 0 0-.267-.779 2 2 0 0 0-.541-.606 3.96 3.96 0 0 1-1.481-2.282c-1.708 2.239-1.053 3.51-.235 4.63a.75.75 0 0 1-.014.901.87.87 0 0 1-.394.283.84.84 0 0 1-.478.023c-1.105-.27-2.145-.784-2.85-1.603a4.7 4.7 0 0 1-.906-1.555 4.8 4.8 0 0 1-.263-1.797s-.133-2.463 2.837-4.876c0 0 3.51-2.978 2.292-5.18a.62.62 0 0 1 .112-.653.56.56 0 0 1 .623-.147l.146.058a7.63 7.63 0 0 1 2.96 3.5c.58 1.413.576 3.06.184 4.527.325-.292.596-.641.801-1.033l.029-.064c.198-.477.821-.325 1.055-.013.086.137 2.292 3.343 1.107 6.048a5.5 5.5 0 0 1-1.84 2.027 6.1 6.1 0 0 1-2.138.893.83.83 0 0 1-.472-.038.87.87 0 0 1-.381-.29zM7.554 7.892a.42.42 0 0 1 .55.146q.06.09.075.198l.045.349c.02.511.014 1.045.213 1.536.206.504.526.95.932 1.298a3.06 3.06 0 0 1 1.16 1.422c.22.564.25 1.19.084 1.773a4.1 4.1 0 0 0 1.39-.757l.103-.084c.336-.277.613-.623.813-1.017.201-.393.322-.825.354-1.269.065-1.025-.284-2.054-.827-2.972-.248.36-.59.639-.985.804-.247.105-.509.17-.776.19a.8.8 0 0 1-.439-.1.83.83 0 0 1-.321-.328.83.83 0 0 1-.035-.729c.412-.972.54-2.05.365-3.097a5.87 5.87 0 0 0-1.642-3.16c-.156 2.205-2.417 4.258-2.881 4.7a4 4 0 0 1-.224.194c-2.426 1.965-2.26 3.755-2.26 3.834a3.7 3.7 0 0 0 .459 2.043c.365.645.89 1.177 1.52 1.54C4.5 12.808 4.5 10.89 7.183 8.14l.372-.25z"/></svg>