<svg xmlns="http://www.w3.org/2000/svg" width="16" height="16">
  <path fill="#0a0a0a" d="M6.57812 1.8396c.28328.00185.5453.15344.6875.39844L8 3.50366h5.7002c.994.00011 1.7998.80674 1.7998 1.80078v7.19536l-.001.0468c-.0247.9725-.8204 1.7529-1.7988 1.753H2.2998C1.30578 14.2995.5 13.4938.5 12.4998V3.61206c.000006-.99862.81296-1.80619 1.81152-1.7998zM2.30371 3.06226c-.30515-.002-.5537.24464-.55371.5498v8.88774c0 .3036.24614.5497.5498.5498h11.4004c.3037-.0001.5498-.2462.5498-.5498V5.30444c0-.30369-.2461-.55067-.5498-.55078H7.28027l-.96679-1.66601z"/>
</svg>
