<svg xmlns="http://www.w3.org/2000/svg" width="16" height="16" viewBox="0 0 16 16"><path fill-rule="evenodd" d="M11.883 2.876a3.9 3.9 0 0 1-1.202 1.202c.484.307.895.718 1.202 1.202a3.9 3.9 0 0 1 1.202-1.202 3.9 3.9 0 0 1-1.202-1.202m-.676-1.7c.126-.765 1.226-.765 1.352 0l.007.046a2.625 2.625 0 0 0 2.173 2.173h.001l.044.007c.766.126.766 1.226 0 1.352l-.045.007a2.625 2.625 0 0 0-2.173 2.173l-.007.045c-.126.766-1.226.766-1.352 0l-.007-.045a2.625 2.625 0 0 0-2.173-2.173l-.045-.007c-.766-.126-.766-1.226 0-1.352l.045-.007A2.625 2.625 0 0 0 11.2 1.222zm-5.673 3.93.109-.676v-.002c.138-.839 1.343-.839 1.48 0l.001.002.109.677a4.375 4.375 0 0 0 3.622 3.622l.677.109h.002c.839.138.839 1.343 0 1.48l-.002.001-.677.109a4.375 4.375 0 0 0-3.622 3.622l-.109.677v.002c-.138.839-1.343.839-1.48 0l-.001-.002-.109-.677a4.375 4.375 0 0 0-3.622-3.622l-.677-.109h-.002c-.839-.138-.839-1.343 0-1.48l.002-.001.677-.109a4.375 4.375 0 0 0 3.622-3.622m.85 1.524A5.63 5.63 0 0 1 3.435 9.58a5.63 5.63 0 0 1 2.948 2.948A5.63 5.63 0 0 1 9.332 9.58a5.63 5.63 0 0 1-2.949-2.95"/></svg>