<svg xmlns="http://www.w3.org/2000/svg" width="16" height="16" viewBox="0 0 16 16"><path fill-rule="evenodd" d="M10.397 2.516a3.4 3.4 0 0 1-1.052 1.052c.424.269.784.628 1.052 1.052a3.4 3.4 0 0 1 1.053-1.052 3.4 3.4 0 0 1-1.053-1.052m-.59-1.486c.11-.67 1.072-.67 1.182 0l.006.039a2.3 2.3 0 0 0 1.902 1.902l.039.006c.67.11.67 1.073 0 1.182l-.04.007a2.3 2.3 0 0 0-1.9 1.902l-.007.039c-.11.67-1.073.67-1.183 0l-.006-.04a2.3 2.3 0 0 0-1.902-1.901l-.04-.007c-.669-.11-.669-1.072 0-1.182l.04-.006A2.3 2.3 0 0 0 9.8 1.069l.006-.04ZM4.841 4.468l.095-.592v-.002c.121-.733 1.176-.733 1.296 0v.002l.096.592a3.83 3.83 0 0 0 3.17 3.17l.592.095h.001c.734.12.734 1.175 0 1.296h-.001l-.593.095a3.83 3.83 0 0 0-3.17 3.17l-.095.592v.002c-.12.734-1.175.734-1.295 0v-.002l-.096-.592a3.83 3.83 0 0 0-3.17-3.17L1.08 9.03h-.002c-.733-.12-.733-1.175 0-1.296h.002l.592-.095a3.83 3.83 0 0 0 3.17-3.17Zm.743 1.333a4.93 4.93 0 0 1-2.58 2.58 4.93 4.93 0 0 1 2.58 2.58 4.93 4.93 0 0 1 2.58-2.58 4.93 4.93 0 0 1-2.58-2.58"/></svg>