<svg xmlns="http://www.w3.org/2000/svg" width="16" height="16" viewBox="0 0 16 16"><path fill-rule="evenodd" d="M11.513 2c.66 0 1.295.262 1.763.727a2.51 2.51 0 0 1-.02 3.544l-.887.875-5.977 5.973-3.607 1.752c-.17.084-.359.13-.549.13a1.258 1.258 0 0 1-1.115-1.793l1.754-3.603 6.874-6.878A2.5 2.5 0 0 1 11.513 2M2.247 13.746l3.258-1.553-1.703-1.702zm2.39-4.141 1.755 1.752 5.091-5.106L9.75 4.52zm6.846-6.36a1.24 1.24 0 0 0-.857.368l1.764 1.761a1.243 1.243 0 0 0 0-1.761 1.22 1.22 0 0 0-.907-.368"/><path d="M11.96 10.373c.167-.466.813-.495 1.04-.087l.04.087.004.014.02.08.004.016.041.26a1.39 1.39 0 0 0 1.148 1.147l.259.042.016.003.08.021.016.004c.496.18.496.903 0 1.081l-.017.005-.08.02-.014.003-.26.042a1.39 1.39 0 0 0-1.148 1.147l-.04.259-.002.001a.56.56 0 0 1-.52.48.57.57 0 0 1-.587-.37l-.005-.014-.02-.08-.005-.017-.04-.259-.023-.11a1.39 1.39 0 0 0-1.125-1.037l-.26-.042c-.64-.106-.644-1.03 0-1.137l.26-.042a1.39 1.39 0 0 0 1.148-1.147l.04-.258.005-.018.02-.08zM2.764 1.335c.15-.419.732-.445.936-.078l.035.078.004.013.02.072.003.015.037.233c.085.53.502.948 1.032 1.034l.233.037.015.003.072.018.014.004c.447.16.447.812 0 .973l-.015.005-.072.017-.013.003-.234.038c-.53.086-.946.502-1.032 1.032l-.037.233H3.76a.51.51 0 0 1-.469.433.51.51 0 0 1-.532-.346L2.74 5.08l-.004-.015-.037-.233-.02-.097a1.25 1.25 0 0 0-1.01-.935l-.234-.038c-.577-.095-.58-.928 0-1.023l.234-.037c.53-.086.947-.503 1.032-1.034l.037-.232.004-.016.019-.072z"/></svg>