<svg xmlns="http://www.w3.org/2000/svg" width="16" height="16" viewBox="0 0 16 16"><path d="M16 7.38A7.82 7.82 0 0 0 8 .5a7.82 7.82 0 0 0-8 6.88v1.24a7.82 7.82 0 0 0 8 6.88 7.82 7.82 0 0 0 8-6.88zm-1.25 0h-3a11.3 11.3 0 0 0-.43-2.54 7.6 7.6 0 0 0 1.75-1 6 6 0 0 1 1.65 3.54zm-9.18 0a9.7 9.7 0 0 1 .37-2.14A8.4 8.4 0 0 0 8 5.5a8.5 8.5 0 0 0 2.09-.26 10.2 10.2 0 0 1 .37 2.14zm4.92 1.24a9.6 9.6 0 0 1-.37 2.14 8.5 8.5 0 0 0-4.18 0 9.7 9.7 0 0 1-.37-2.14zm.4-5A12 12 0 0 0 10 2a6.9 6.9 0 0 1 2 1 6.6 6.6 0 0 1-1.14.66zm-2.6-1.86a10 10 0 0 1 1.38 2.3A7.6 7.6 0 0 1 8 4.25a7.6 7.6 0 0 1-1.67-.19 9.8 9.8 0 0 1 1.38-2.3zm-3.15 1.9A6.6 6.6 0 0 1 4 3a6.9 6.9 0 0 1 2-1 10.4 10.4 0 0 0-.86 1.66M3 3.83a7.6 7.6 0 0 0 1.75 1 11 11 0 0 0-.43 2.54h-3A6 6 0 0 1 3 3.83M1.28 8.62h3a11 11 0 0 0 .43 2.54 7.6 7.6 0 0 0-1.75 1 6 6 0 0 1-1.68-3.54m3.86 3.72A10.4 10.4 0 0 0 6 14a6.9 6.9 0 0 1-2-1 6.6 6.6 0 0 1 1.14-.66m2.57 1.9a9.8 9.8 0 0 1-1.38-2.3 7.4 7.4 0 0 1 3.34 0 9.8 9.8 0 0 1-1.38 2.3zm3.15-1.9a6.6 6.6 0 0 1 1.19.66 7.2 7.2 0 0 1-2 1 11.5 11.5 0 0 0 .81-1.66m2.14-.17a7.6 7.6 0 0 0-1.75-1 10.8 10.8 0 0 0 .43-2.54h3A6 6 0 0 1 13 12.17"/></svg>