<svg xmlns="http://www.w3.org/2000/svg" width="16" height="16" viewBox="0 0 16 16"><path d="M14.17 3.59 16 1.76 14.24 0l-1.83 1.83v.85l-1.8 1.83a4.2 4.2 0 0 0-2.34-.85 3.73 3.73 0 0 0-2.8 1.07 4.6 4.6 0 0 0-1 1.34.8.8 0 0 1-.23.34 1.8 1.8 0 0 1-.39 0 2.8 2.8 0 0 0-2.46.84A4.73 4.73 0 0 0 0 10.8 5.46 5.46 0 0 0 5.38 16a4.76 4.76 0 0 0 3.39-1.38 2.8 2.8 0 0 0 .83-2.46 1.8 1.8 0 0 1 0-.39.85.85 0 0 1 .34-.23 4.4 4.4 0 0 0 1.34-1 3.7 3.7 0 0 0 1.07-2.79 4.1 4.1 0 0 0-.85-2.35l1.83-1.83zm-3.05 4.19a2.46 2.46 0 0 1-.72 1.88 3.2 3.2 0 0 1-1 .78 1.9 1.9 0 0 0-.69.47 1.57 1.57 0 0 0-.34 1.34 1.6 1.6 0 0 1-.48 1.51 3.86 3.86 0 0 1-5.44-.22 4.17 4.17 0 0 1-1.24-2.79 3.55 3.55 0 0 1 1-2.65 1.61 1.61 0 0 1 1.51-.48 1.56 1.56 0 0 0 1.34-.34 2.2 2.2 0 0 0 .48-.69 3 3 0 0 1 .77-1 2.47 2.47 0 0 1 1.88-.72 3 3 0 0 1 1.52.5L7.4 7.73l.88.88 2.34-2.35a3 3 0 0 1 .5 1.52"/><path d="M5.83 8.33a1.76 1.76 0 0 0-1.29.51 1.82 1.82 0 0 0 0 2.57 1.88 1.88 0 0 0 1.38.59 1.75 1.75 0 0 0 1.24-.51 1.82 1.82 0 0 0 0-2.57 1.93 1.93 0 0 0-1.33-.59m.47 2.27a.64.64 0 0 1-.9-.9.56.56 0 0 1 .38-.15.74.74 0 0 1 .45.2.6.6 0 0 1 .07.85"/></svg>