<svg xmlns="http://www.w3.org/2000/svg" width="16" height="16" viewBox="0 0 16 16"><path d="M14.37 2.56a3.92 3.92 0 0 0-3-1 4.1 4.1 0 0 0-1.82.52A9 9 0 0 0 8 3.06a9.4 9.4 0 0 0-1.49-1 3.85 3.85 0 0 0-1.77-.52A4.07 4.07 0 0 0 1.63 2.6 4 4 0 0 0 .35 5.52a3.83 3.83 0 0 0 .88 2.33 34 34 0 0 0 5.7 6.2l.39-.49-.38.49a1.67 1.67 0 0 0 1.06.42 1.7 1.7 0 0 0 1.08-.42 37.4 37.4 0 0 0 6.06-6.73 3.5 3.5 0 0 0 .47-1.74 4 4 0 0 0-1.24-3.02m-.26 4.06a37 37 0 0 1-5.81 6.46.56.56 0 0 1-.28.13.5.5 0 0 1-.29-.14 32.8 32.8 0 0 1-5.49-5.94 2.74 2.74 0 0 1-.64-1.61 2.75 2.75 0 0 1 .88-2 2.8 2.8 0 0 1 2.16-.72h.1a2.7 2.7 0 0 1 1.19.38A10 10 0 0 1 7.24 4l.76.63.76-.63a9 9 0 0 1 1.34-.86 2.9 2.9 0 0 1 1.26-.39h.1a2.68 2.68 0 0 1 2.07.68 2.78 2.78 0 0 1 .87 2 2.2 2.2 0 0 1-.29 1.19"/></svg>