<svg width="16" height="16" viewBox="0 0 16 16" fill="currentColor" xmlns="http://www.w3.org/2000/svg">
<g clip-path="url(#clip0_5025_387)">
<path d="M8.5752 15.5H7.3252V0.5H8.5752V15.5Z" fill="currentColor"/>
<path fill-rule="evenodd" clip-rule="evenodd" d="M3.81934 4.7002C4.4948 4.71729 5.03711 5.27061 5.03711 5.9502V10.082C5.02029 10.7468 4.48409 11.283 3.81934 11.2998H1.71777C1.05302 11.283 0.516822 10.7468 0.5 10.082V5.9502C0.5 5.27061 1.04231 4.71729 1.71777 4.7002H3.81934ZM1.75 10.0498H3.78711V5.9502H1.75V10.0498Z" fill="currentColor"/>
<path fill-rule="evenodd" clip-rule="evenodd" d="M14.2949 4.7002C14.9703 4.71739 15.5127 5.27068 15.5127 5.9502V10.0498L15.5117 10.082C15.4949 10.7467 14.9596 11.2829 14.2949 11.2998H12.1924C11.5278 11.2828 10.9924 10.7467 10.9756 10.082L10.9746 10.0498V5.9502C10.9746 5.27074 11.5171 4.71749 12.1924 4.7002H14.2949ZM12.2246 10.0498H14.2627V5.9502H12.2246V10.0498Z" fill="currentColor"/>
</g>
<defs>
<clipPath id="clip0_5025_387">
<rect width="16" height="16" fill="white"/>
</clipPath>
</defs>
</svg>
