<svg xmlns="http://www.w3.org/2000/svg" width="16" height="16" viewBox="0 0 16 16"><path d="M8.575 15.5h-1.25V.5h1.25z"/><path fill-rule="evenodd" d="M3.82 4.7a1.25 1.25 0 0 1 1.217 1.25v4.132A1.25 1.25 0 0 1 3.82 11.3H1.718A1.25 1.25 0 0 1 .5 10.082V5.95c0-.68.542-1.233 1.218-1.25zm-2.07 5.35h2.037v-4.1H1.75zM14.295 4.7a1.25 1.25 0 0 1 1.218 1.25v4.1l-.001.032a1.25 1.25 0 0 1-1.217 1.218h-2.103a1.25 1.25 0 0 1-1.216-1.218l-.001-.032v-4.1c0-.68.542-1.233 1.217-1.25zm-2.07 5.35h2.038v-4.1h-2.038z"/></svg>