<svg xmlns="http://www.w3.org/2000/svg" width="16" height="16" viewBox="0 0 16 16"><path d="M8 0c4.374 0 8 3.316 8 7.5S12.375 15 8 15s-8-3.316-8-7.5S3.626 0 8 0m0 1.253c-3.772 0-6.75 2.84-6.751 6.247 0 3.408 2.979 6.247 6.751 6.247s6.751-2.84 6.751-6.247S11.772 1.253 8 1.253m-.666 2.66c.12-.724 1.17-.724 1.289 0l.076.47.011.057a2.92 2.92 0 0 0 2.417 2.347l.474.075h.001c.73.12.73 1.159 0 1.278h-.001l-.474.075a2.92 2.92 0 0 0-2.428 2.404l-.076.47-.033.129c-.215.592-1.144.55-1.256-.128l-.076-.47A2.92 2.92 0 0 0 4.83 8.214l-.474-.075h-.002c-.729-.12-.729-1.159 0-1.278h.002l.474-.075.059-.01a2.92 2.92 0 0 0 2.369-2.394zm.645 1.844A4.05 4.05 0 0 1 6.218 7.5a4.05 4.05 0 0 1 1.76 1.744A4.05 4.05 0 0 1 9.74 7.501a4.05 4.05 0 0 1-1.76-1.744"/></svg>