<svg width="16" height="16" viewBox="0 0 16 16" fill="currentColor" xmlns="http://www.w3.org/2000/svg"> <path d="M11.9541 0C12.5618 4.21516e-05 12.8999 0.703051 12.5205 1.17773L9.46284 5H11.9541C12.5618 5.00004 12.8999 5.70304 12.5205 6.17773L5.1103 15.4404C4.5829 16.0994 3.54576 15.478 3.87788 14.7021L6.2148 9.25H3.30659C2.80039 9.25 2.45015 8.74447 2.62788 8.27051L5.55269 0.470703L5.59956 0.369141C5.72653 0.14357 5.96688 0 6.2314 0H11.9541ZM4.06343 8H8.1103L6.54976 11.6387L10.8623 6.25H6.86128L10.8613 1.25H6.59468L4.06343 8Z"/> </svg>