<svg width="16" height="16" viewBox="0 0 16 16" fill="none" xmlns="http://www.w3.org/2000/svg"><path d="M4.89998 3.04545H14.9V4.29545H4.89998V3.04545Z" fill="currentColor"/><path d="M4.89998 7.32045H14.9V8.57045H4.89998V7.32045Z" fill="currentColor"/><path d="M4.89998 11.65H14.9V12.9H4.89998V11.65Z" fill="currentColor"/><path d="M2.34998 2.5C3.03948 2.5 3.59998 3.02518 3.59998 3.67045C3.59998 4.31573 3.03948 4.84091 2.34998 4.84091C1.66048 4.84091 1.09998 4.31573 1.09998 3.67045C1.09998 3.02518 1.66048 2.5 2.34998 2.5Z" fill="currentColor"/><path d="M2.34998 6.77499C3.03948 6.77499 3.59998 7.30017 3.59998 7.94545C3.59998 8.59072 3.03948 9.1159 2.34998 9.1159C1.66048 9.1159 1.09998 8.59072 1.09998 7.94545C1.09998 7.30017 1.66048 6.77499 2.34998 6.77499Z" fill="currentColor"/><path d="M2.34998 11.1045C3.03948 11.1045 3.59998 11.6297 3.59998 12.275C3.59998 12.9203 3.03948 13.4455 2.34998 13.4455C1.66048 13.4455 1.09998 12.9203 1.09998 12.275C1.09998 11.6297 1.66048 11.1045 2.34998 11.1045Z" fill="currentColor"/></svg>