<svg xmlns="http://www.w3.org/2000/svg" width="16" height="16" viewBox="0 0 16 16"><path fill-rule="evenodd" d="m11.046 7.57-.001.002-6.965 6.965-.002.002-.003.003a1.25 1.25 0 0 1-1.768 0l-.884-.884a1.25 1.25 0 0 1 0-1.768l10.501-10.5a1.25 1.25 0 0 1 1.768 0l.884.884a1.25 1.25 0 0 1 0 1.767zm-.885-2.65.884.884 2.647-2.647-.884-.883z"/><path d="M6.857 4.328a.096.096 0 0 0 .186 0l.128-.495a.15.15 0 0 1 .109-.108l.547-.132a.095.095 0 0 0 0-.186l-.547-.132a.15.15 0 0 1-.11-.108l-.127-.495a.096.096 0 0 0-.186 0l-.128.495a.15.15 0 0 1-.109.108l-.547.132a.095.095 0 0 0 0 .186l.547.132a.15.15 0 0 1 .11.108zM4.214 6.956a.192.192 0 0 0 .372 0l.256-.99a.3.3 0 0 1 .218-.216l1.094-.265a.19.19 0 0 0 0-.37L5.06 4.85a.3.3 0 0 1-.218-.216l-.256-.99a.192.192 0 0 0-.372 0l-.256.99a.3.3 0 0 1-.218.216l-1.094.265a.19.19 0 0 0 0 .37l1.094.265c.107.026.19.109.218.216zM10.7 12.5a.19.19 0 0 1-.186-.144l-.256-.99a.3.3 0 0 0-.218-.216l-1.094-.265a.19.19 0 0 1 0-.37l1.094-.265a.3.3 0 0 0 .218-.216l.256-.99a.192.192 0 0 1 .372 0l.256.99c.028.107.111.19.218.216l1.094.265a.19.19 0 0 1 0 .37l-1.094.265a.3.3 0 0 0-.218.216l-.256.99a.19.19 0 0 1-.186.144"/></svg>