<svg xmlns="http://www.w3.org/2000/svg" width="16" height="16">
  <path fill="#0a0a0a" d="M13.582 1.2002c.6755.01709 1.2178.57041 1.2178 1.25V13.582c-.0171.6755-.5704 1.2178-1.25 1.2178H2.4502c-.69036 0-1.25-.5596-1.25-1.25V2.4502c0-.67959.54231-1.23291 1.21777-1.25zM2.4502 13.5498h11.0996V2.4502H2.4502zm8.918-9.06152c.1848.00946.332.16241.332.34961v6.42481l-.001.0176c-.009.1789-.1521.3229-.331.332H4.65039c-.19323 0-.35048-.1564-.35059-.3496V4.83789c0-.1933.15729-.35059.35059-.35059h6.69921zM5.5498 10.3623h4.9004v-4.625H5.5498z"/>
</svg>
