<svg xmlns="http://www.w3.org/2000/svg" width="16" height="16" viewBox="0 0 16 16"><path fill-rule="evenodd" d="M12.38 5.71H9.8l1-3.12a.67.67 0 0 1 .3-.36l1.66-.87-.54-1.11-1.65.87a1.9 1.9 0 0 0-.9 1.06L8.48 5.7H3.62a5.67 5.67 0 0 0-1.87 4.19A6.06 6.06 0 0 0 8 15.75a6.06 6.06 0 0 0 6.25-5.86 5.67 5.67 0 0 0-1.87-4.18M3.82 7h8.36a5 5 0 0 1 .73 1.23H3.09A5 5 0 0 1 3.82 7m9.43 2.94a4.5 4.5 0 0 1-.48 2l-1.44-1.25-1.66 1.43L8 10.67l-1.67 1.45-1.66-1.45-1.44 1.25a4.5 4.5 0 0 1-.48-2v-.46h10.48c.01.12.02.28.02.43zM8 14.75A5.37 5.37 0 0 1 3.94 13l.73-.64 1.66 1.45L8 12.33l1.67 1.45 1.66-1.45.73.64A5.37 5.37 0 0 1 8 14.75"/></svg>