<svg xmlns="http://www.w3.org/2000/svg" width="16" height="16" viewBox="0 0 16 16"><path d="M5.645 3.185q-1.037-.043-1.49.255-.456.284-.456.98v1.179q0 .951-.51 1.59-.512.639-1.32.78V8q.822.143 1.32.795.51.638.51 1.604v1.165q0 .71.455 1.008t1.49.255v1.35h-.666q-.782 0-1.407-.327a2.36 2.36 0 0 1-.98-.895 2.46 2.46 0 0 1-.34-1.292v-1.179q0-.553-.156-.936a1.47 1.47 0 0 0-.44-.625 1.14 1.14 0 0 0-.696-.241H.846V7.317h.113q.411-.014.695-.242.285-.226.44-.624a2.6 2.6 0 0 0 .157-.937V4.335q0-.738.34-1.307.356-.568.98-.894a3 3 0 0 1 1.407-.326h.667zm5.38-1.377q.782 0 1.407.326.624.327.966.894.354.569.354 1.307v1.179q0 .54.156.937t.44.624q.285.228.696.242h.114v1.364h-.114q-.411.015-.695.24-.285.227-.44.626-.157.383-.157.936v1.18q0 .723-.354 1.291-.342.582-.966.895a3 3 0 0 1-1.407.327h-.667v-1.35q1.037.043 1.492-.255.453-.298.454-1.008v-1.165q0-.965.497-1.604.51-.653 1.335-.795v-.03a2.1 2.1 0 0 1-1.321-.78q-.511-.639-.511-1.59v-1.18q0-.695-.454-.979-.454-.298-1.492-.255V1.808z"/></svg>