<svg xmlns="http://www.w3.org/2000/svg" width="16" height="16" viewBox="0 0 16 16"><path d="M8 4.918c1.005-1.426 2.29-2.14 3.63-2.054 1.582.102 2.911 1.298 3.63 3.029.704 1.692.896 3.417.617 4.757-.271 1.308-1.078 2.493-2.535 2.493-1.323 0-2.321-.86-3.183-2.02-.701-.945-1.396-2.206-2.159-3.66-.763 1.454-1.458 2.715-2.159 3.66-.862 1.16-1.86 2.02-3.183 2.02-1.457 0-2.264-1.185-2.535-2.493-.279-1.34-.087-3.065.616-4.757.72-1.731 2.05-2.927 3.63-3.029C5.71 2.778 6.995 3.492 8 4.918M7.295 6.12c-.913-1.606-1.99-2.11-2.842-2.056-.923.06-1.93.791-2.547 2.273-.632 1.52-.774 3.008-.551 4.077.229 1.103.758 1.524 1.303 1.524.681 0 1.352-.426 2.16-1.514.76-1.026 1.532-2.487 2.477-4.304m4.252-2.056c-.852-.055-1.929.45-2.842 2.056.945 1.817 1.716 3.278 2.478 4.304.807 1.088 1.478 1.514 2.159 1.514.545 0 1.074-.421 1.303-1.524.223-1.069.08-2.556-.551-4.077-.616-1.482-1.624-2.214-2.547-2.273"/></svg>