<svg xmlns="http://www.w3.org/2000/svg" width="16" height="16" viewBox="0 0 16 16"><path d="M3.76 7.606c0 .704.115 1.399.337 2.044.221.646.543 1.226.944 1.71.4.482.87.858 1.377 1.112a3.5 3.5 0 0 0 1.582.38c.538 0 1.076-.127 1.582-.38.507-.254.976-.63 1.377-1.113a5.5 5.5 0 0 0 .944-1.709c.222-.645.337-1.34.337-2.044h1.26c0 .84-.137 1.673-.405 2.454a6.7 6.7 0 0 1-1.167 2.103 5.55 5.55 0 0 1-1.783 1.435 4.9 4.9 0 0 1-1.515.47V16H7.37v-1.933a4.9 4.9 0 0 1-1.516-.47 5.55 5.55 0 0 1-1.783-1.434 6.7 6.7 0 0 1-1.167-2.103A7.6 7.6 0 0 1 2.5 7.606zM8 0c1.68 0 2.867 1.577 2.867 3.285v4.427c0 1.708-1.187 3.285-2.867 3.285S5.133 9.421 5.133 7.712V3.285C5.133 1.577 6.32 0 8 0m0 1.26c-.79 0-1.607.801-1.607 2.025v4.427c0 1.224.816 2.025 1.607 2.025.79 0 1.607-.801 1.607-2.025V3.285C9.607 2.061 8.791 1.26 8 1.26"/></svg>