<svg width="16" height="16" viewBox="0 0 16 16" xmlns="http://www.w3.org/2000/svg" fill="currentColor">
  <path d="M3.97852 7.99756C3.97856 8.65559 4.08872 9.30508 4.30078 9.90771C4.51292 10.5105 4.82158 11.0504 5.20312 11.4995C5.58451 11.9484 6.02964 12.2962 6.50879 12.5298C6.98712 12.7629 7.49352 12.8803 8 12.8804C8.5065 12.8803 9.01286 12.763 9.49121 12.5298C9.97035 12.2962 10.4155 11.9484 10.7969 11.4995C11.1784 11.0504 11.4881 10.5105 11.7002 9.90771C11.9122 9.30513 12.0224 8.65553 12.0225 7.99756H13.5C13.5 8.81094 13.363 9.6187 13.0967 10.3755C12.8304 11.1322 12.4379 11.828 11.9355 12.4194C11.4329 13.0111 10.8282 13.4903 10.1523 13.8198C9.70177 14.0394 9.22594 14.1866 8.73926 14.2622V16.0024H7.26172V14.2622C6.77482 14.1866 6.29842 14.0396 5.84766 13.8198C5.17165 13.4902 4.56719 13.0112 4.06445 12.4194C3.56195 11.828 3.1687 11.1323 2.90234 10.3755C2.63609 9.61874 2.50004 8.81088 2.5 7.99756H3.97852ZM8 -0.00244141C9.72961 -0.00225122 10.9265 1.63953 10.9268 3.3833V7.77588C10.9267 9.51974 9.72969 11.1614 8 11.1616C6.27031 11.1614 5.07335 9.51974 5.07324 7.77588V3.3833C5.07345 1.63952 6.27038 -0.00226073 8 -0.00244141ZM8 1.49756C7.31396 1.49776 6.55196 2.21665 6.55176 3.3833V7.77588C6.55186 8.94266 7.31392 9.66142 8 9.66162C8.68608 9.66141 9.44912 8.94265 9.44922 7.77588V3.3833C9.44902 2.21666 8.68603 1.49777 8 1.49756Z"/>
</svg>