<svg xmlns="http://www.w3.org/2000/svg" width="16" height="16" viewBox="0 0 16 16" fill="currentColor">
<path fill-rule="evenodd" d="M14.124 12.995c.345 0 .625-.28.625-.625V3.3H16v9.07c0 1.036-.84 1.876-1.876 1.876H1.876A1.876 1.876 0 0 1 0 12.37V3.3h1.251v9.07c0 .345.28.625.625.625z"/>
<path fill-rule="evenodd" d="M5.586 8.451H3.753v1.833h1.833zM2.502 7.2v4.335h4.335V7.2zm9.758 5.836v-3.41a1.176 1.176 0 1 0-2.352 0v3.41H8.657v-3.41a2.427 2.427 0 1 1 4.854 0v3.41z"/>
<path d="M0 1.7v1.897a2.49 2.49 0 0 0 2.49 2.478 2.53 2.53 0 0 0 1.836-.795c.453.49 1.105.795 1.837.795S7.534 5.77 8 5.28c.453.49 1.105.795 1.837.795s1.371-.305 1.837-.795c.453.49 1.105.795 1.837.795A2.49 2.49 0 0 0 16 3.597V1.7zm2.49 3.063a1.17 1.17 0 0 1-1.172-1.166v-.572H3.66v.572a1.17 1.17 0 0 1-1.172 1.166m3.66 0a1.17 1.17 0 0 1-1.172-1.166v-.572h2.343v.572A1.17 1.17 0 0 1 6.15 4.763m3.674 0a1.17 1.17 0 0 1-1.172-1.166v-.572h2.343v.572a1.17 1.17 0 0 1-1.171 1.166m4.818-1.166a1.17 1.17 0 0 1-1.171 1.166A1.16 1.16 0 0 1 12.3 3.597v-.572h2.342z"/>
</svg>