<svg xmlns="http://www.w3.org/2000/svg" width="16" height="16" viewBox="0 0 16 16"><path d="M9.592 1.514c1.327-.766 3.058-.172 4.17.866 1.134 1.06 1.824 2.762.87 4.418l-.375-.216-.374-.217c.685-1.188.242-2.462-.712-3.352-.977-.913-2.293-1.243-3.147-.749L6.3 4.413v4.819h-.865V4.164c0-.155.082-.298.216-.375z"/><path d="M10.147 3.816a.43.43 0 0 1 .327.043l3.939 2.274c1.328.767 1.678 2.563 1.335 4.045-.35 1.512-1.48 2.961-3.392 2.961v-.864c1.373 0 2.254-1.021 2.549-2.293.302-1.303-.07-2.606-.924-3.1l-3.723-2.149-4.173 2.41-.217-.375-.216-.374 4.39-2.535z"/><path d="M11.958 12.622V8.32L7.785 5.91l.433-.75 4.39 2.536c.133.077.216.22.216.373v4.552c0 1.534-1.38 2.735-2.835 3.179-1.485.453-3.305.2-4.26-1.456l.375-.216.375-.216c.685 1.188 2.01 1.442 3.258 1.061 1.278-.39 2.221-1.364 2.221-2.352"/><path d="M10.568 6.86v4.977a.43.43 0 0 1-.217.375l-3.938 2.274c-1.328.766-3.058.172-4.17-.865-1.135-1.06-1.826-2.762-.871-4.418l.374.216.375.216c-.685 1.188-.242 2.463.712 3.353.977.913 2.292 1.243 3.147.749l3.723-2.15V6.86z"/><path d="M3.644 3.727c-1.373 0-2.255 1.02-2.55 2.29-.3 1.302.072 2.606.929 3.101l3.722 2.15 4.174-2.41.215.374.217.375-4.39 2.534a.43.43 0 0 1-.433 0L1.59 9.867C.26 9.099-.09 7.304.252 5.822c.35-1.513 1.48-2.961 3.392-2.961z"/><path d="M3.179 3.379c0-1.534 1.38-2.736 2.835-3.18C7.5-.254 9.32 0 10.274 1.655l-.75.433C8.84.9 7.514.646 6.267 1.027c-1.28.39-2.222 1.364-2.222 2.352V7.68l4.173 2.41-.217.375-.216.374-4.39-2.535a.43.43 0 0 1-.216-.374z"/></svg>