<svg xmlns="http://www.w3.org/2000/svg" width="16" height="16" viewBox="0 0 16 16"><path d="M14.903 3.31h-10v1.26h10zm0 4.29h-10v1.26h10zm0 4.35h-10v1.26h10zm-12.6-6.88h.49V2.8h-.88v.45h.39zm.87 3.88h-.95l.14-.11.3-.24c.35-.28.49-.5.49-.79a.74.74 0 0 0-.84-.73.77.77 0 0 0-.81.84h.52a.34.34 0 0 1 .29-.39.31.31 0 0 1 .31.31.6.6 0 0 1-.22.44l-.87.75v.39h1.64zm-.36 3.56a.52.52 0 0 0 .28-.48.67.67 0 0 0-.78-.62.71.71 0 0 0-.77.75h.5a.3.3 0 0 1 .27-.32.26.26 0 0 1 .286.366.26.26 0 0 1-.286.144h-.09v.38h.09c.23 0 .37.11.37.29a.29.29 0 0 1-.33.29.35.35 0 0 1-.36-.35h-.47a.76.76 0 0 0 .83.8.74.74 0 0 0 .83-.72.53.53 0 0 0-.37-.53"/></svg>