<svg xmlns="http://www.w3.org/2000/svg" width="16" height="16" viewBox="0 0 16 16"><path d="M3.59 3.03h12.2v1.26H3.59zm0 4.29h12.2v1.26H3.59zm0 4.35h12.2v1.26H3.59zM.99 4.79h.49V2.52H.6v.45h.39v1.82zm.87 3.88H.91l.14-.11.3-.24c.35-.28.49-.5.49-.79A.74.74 0 0 0 1 6.8a.77.77 0 0 0-.81.84h.52A.34.34 0 0 1 1 7.25a.31.31 0 0 1 .31.31.6.6 0 0 1-.22.44l-.87.75v.39h1.64zm-.36 3.56a.52.52 0 0 0 .28-.48.67.67 0 0 0-.78-.62.71.71 0 0 0-.77.75h.5a.3.3 0 0 1 .27-.32.26.26 0 1 1 0 .51H.91v.38H1c.23 0 .37.11.37.29a.29.29 0 0 1-.33.29.35.35 0 0 1-.36-.35H.21a.76.76 0 0 0 .83.8.74.74 0 0 0 .83-.72.53.53 0 0 0-.37-.53z"/></svg>