<svg xmlns="http://www.w3.org/2000/svg" width="16" height="16" viewBox="0 0 16 16"><path d="M15.691.09a.67.67 0 0 0-.67 0L.311 8.84a.64.64 0 0 0-.31.592.631.631 0 0 0 .41.58l3.59 1.342 1.85 4.286a.691.691 0 0 0 .42.36h.18a.7.7 0 0 0 .37-.11l3.28-2.223 3.71 1.422c.077.01.154.01.23 0 .12 0 .237-.03.34-.09a.629.629 0 0 0 .31-.48L16.001.68a.641.641 0 0 0-.31-.591Zm-4.91 4.005-6.4 6.007-2.3-.88 8.7-5.127Zm-4 10.353-1.48-3.434 7.4-7.01-4.61 8.141a.43.43 0 0 0 0 .07.621.621 0 0 0 .37.811l.28.11-1.96 1.312Zm6.75-.801-3.96-1.522 4.87-8.59-.91 10.112Z"/></svg>