<svg xmlns="http://www.w3.org/2000/svg" width="16" height="16" viewBox="0 0 16 16"><path d="M6.446.717A5.7 5.7 0 0 1 9.171.622a5.84 5.84 0 0 1 2.482 1.193 6.3 6.3 0 0 1 1.728 2.232A6.7 6.7 0 0 1 14 6.857c0 1.628-.537 3.12-1.516 4.2-.913 1.007-2.155 1.589-3.408 1.589-1.149 0-1.941-.378-2.469-.796l-.697 3.147a.66.66 0 0 1-.217.362.6.6 0 0 1-.913-.166.68.68 0 0 1-.076-.49l2.153-9.706a.65.65 0 0 1 .275-.404.6.6 0 0 1 .468-.081c.16.04.299.147.384.293a.68.68 0 0 1 .076.487l-1.13 5.089c.22.31.827.964 2.146.964 1.802 0 3.69-1.665 3.69-4.487 0-.777-.17-1.543-.493-2.239a5 5 0 0 0-1.374-1.775 4.64 4.64 0 0 0-1.971-.946 4.5 4.5 0 0 0-2.16.075c-.706.2-1.358.57-1.908 1.082A5.1 5.1 0 0 0 3.598 4.92a5.34 5.34 0 0 0 .274 4.468l.001.002.047.114a.7.7 0 0 1 .005.37.65.65 0 0 1-.283.386.6.6 0 0 1-.464.068.62.62 0 0 1-.374-.292l-.001-.002a6.7 6.7 0 0 1-.346-5.61c.352-.9.894-1.704 1.586-2.347A5.9 5.9 0 0 1 6.446.717"/></svg>