<svg xmlns="http://www.w3.org/2000/svg" width="16" height="16" viewBox="0 0 16 16"><path d="M11.917 11.71a2.05 2.05 0 0 1-1.454-.602l-2.1-2.1a.4.4 0 0 0-.551 0l-2.108 2.108a2.04 2.04 0 0 1-1.454.602h-.414l2.66 2.66c.83.83 2.177.83 3.007 0l2.667-2.668zM4.25 4.282c.55 0 1.066.214 1.454.602l2.108 2.108a.39.39 0 0 0 .552 0l2.1-2.1a2.04 2.04 0 0 1 1.453-.602h.253L9.503 1.623a2.127 2.127 0 0 0-3.007 0l-2.66 2.66h.414z"/><path d="m14.377 6.496-1.612-1.612a.3.3 0 0 1-.114.023h-.733c-.379 0-.75.154-1.017.422l-2.1 2.1a1.005 1.005 0 0 1-1.425 0L5.268 5.32a1.45 1.45 0 0 0-1.018-.422h-.9a.3.3 0 0 1-.109-.021L1.623 6.496c-.83.83-.83 2.177 0 3.008l1.618 1.618a.3.3 0 0 1 .108-.022h.901c.38 0 .75-.153 1.018-.421L7.375 8.57a1.034 1.034 0 0 1 1.426 0l2.1 2.1c.267.268.638.421 1.017.421h.733q.06.001.114.024l1.612-1.612c.83-.83.83-2.178 0-3.008z"/></svg>