<svg xmlns="http://www.w3.org/2000/svg" width="16" height="16" viewBox="0 0 16 16"><path fill-rule="evenodd" d="M-.005 8C-.005 3.824 3.623.515 8 .515c4.377 0 8.005 3.309 8.005 7.485S12.377 15.485 8 15.485C3.623 15.485-.005 12.176-.005 8ZM8 1.765C4.226 1.765 1.245 4.599 1.245 8c0 3.401 2.98 6.235 6.755 6.235 3.774 0 6.755-2.834 6.755-6.235 0-3.401-2.98-6.235-6.755-6.235ZM6.807 4.539a.5.5 0 0 1 .544.105l3 2.96a.5.5 0 0 1 .005.708l-3 3.04A.5.5 0 0 1 6.5 11V5a.5.5 0 0 1 .307-.461ZM7.5 6.196v3.586l1.793-1.817L7.5 6.195Z"/></svg>