<svg xmlns="http://www.w3.org/2000/svg" width="16" height="16" viewBox="0 0 16 16"><path d="M14.77 11V8.5a1.25 1.25 0 0 0-1.25-1.25v-2.5a1.25 1.25 0 0 0-1.27-1.25h-1.87V1.25A1.26 1.26 0 0 0 9.12 0H6.88a1.26 1.26 0 0 0-1.26 1.25V3.5H3.75A1.25 1.25 0 0 0 2.5 4.75v2.5A1.25 1.25 0 0 0 1.23 8.5V11A1.25 1.25 0 0 0 0 12.25V16h16v-3.75A1.25 1.25 0 0 0 14.77 11zm-2.52-6.25v2.5h-1.14l-.68-2.5zm-5.37-3.5h2.24V3.5H6.88V1.25zm-3.13 3.5h1.83l-.69 2.5H3.75zm-.91 10H1.25v-2.5h2.28zM2.48 11V8.5h2.07L3.87 11zm1.66 3.75 2.07-7.58.66-2.42h2.26l.69 2.5.34 1.25.68 2.5.34 1.25.68 2.5zm7.31-6.25h2.07V11h-1.38zm3.3 6.25h-1.59l-.68-2.5h2.27z"/></svg>