<svg xmlns="http://www.w3.org/2000/svg" width="16" height="16" viewBox="0 0 16 16"><path d="M6.163 1.5a.85.85 0 0 1 .79 1.085l-1.338 4.65H6.85c.45 0 .75.315.75.75v4.165a1.25 1.25 0 0 1-1.218 1.25H1.718A1.25 1.25 0 0 1 .5 12.15V7.885c0-.16.031-.32.092-.47l.012-.03L2.847 2.25a1.25 1.25 0 0 1 1.145-.75h2.17m7.9 0a.85.85 0 0 1 .79 1.085l-1.338 4.65h1.235c.45 0 .75.315.75.75v4.165a1.25 1.25 0 0 1-1.218 1.25H9.618A1.25 1.25 0 0 1 8.4 12.15V7.885c0-.16.031-.32.092-.47l.012-.03 2.243-5.135a1.25 1.25 0 0 1 1.145-.75h2.171M1.75 7.885V12.2h4.6V8.35h-.935c-.915 0-1.218-.65-1-1.461L5.7 2.75H3.992zm7.9 0V12.2h4.6V8.35h-.935c-.915 0-1.218-.65-1-1.461L13.6 2.75h-1.708z"/></svg>