<svg width="16" height="16" viewBox="0 0 16 16" fill="currentColor" xmlns="http://www.w3.org/2000/svg">
<path d="M1.75 11.2998C1.75 12.3768 2.62324 13.25 3.7002 13.25H5V14.5H3.7002L3.61719 14.499C1.91567 14.4558 0.544199 13.0843 0.500977 11.3828L0.5 11.2998V10H1.75V11.2998Z" fill="currentColor"/>
<path d="M15.5 11.2998L15.499 11.3828C15.4558 13.0843 14.0843 14.4558 12.3828 14.499L12.2998 14.5H11V13.25H12.2998C13.3768 13.25 14.25 12.3768 14.25 11.2998V10H15.5V11.2998Z" fill="currentColor"/>
<path d="M12.3828 1.50098C14.1119 1.5449 15.5 2.96057 15.5 4.7002V6H14.25V4.7002C14.25 3.64016 13.4042 2.77781 12.3506 2.75098L12.2998 2.75H11V1.5H12.2998L12.3828 1.50098Z" fill="currentColor"/>
<path d="M5 2.75H3.7002C2.62324 2.75 1.75 3.62324 1.75 4.7002V6H0.5V4.7002C0.5 2.96057 1.88815 1.5449 3.61719 1.50098L3.7002 1.5H5V2.75Z" fill="currentColor"/>
</svg>
