<svg xmlns="http://www.w3.org/2000/svg" width="160" height="160" viewBox="0 0 160 160"><path d="M17.5 113c0 10.77 8.73 19.5 19.5 19.5h13V145H37l-.826-.011c-17.017-.431-30.732-14.146-31.163-31.163L5 113v-13h12.5zm137.5 0-.011.826c-.431 17.017-14.146 30.732-31.163 31.163L123 145h-13v-12.5h13c10.77 0 19.5-8.73 19.5-19.5v-13H155zM50 27.5H37c-10.77 0-19.5 8.73-19.5 19.5v13H5V47c0-17.397 13.883-31.551 31.174-31.99L37 15h13zm73.826-12.49C141.117 15.45 155 29.604 155 47v13h-12.5V47c0-10.601-8.46-19.226-18.997-19.493L123 27.5h-13V15h13z"/></svg>