<svg xmlns="http://www.w3.org/2000/svg" width="16" height="16" viewBox="0 0 16 16"><path d="M12.37 7.53a3.67 3.67 0 0 0-2.5 1H7.16a.65.65 0 0 1-.38-.13L5 7V4h2V2.75H4.1a2.91 2.91 0 0 0-.33-.37 2.34 2.34 0 0 0-.77-.5 2.64 2.64 0 0 0-1-.18V4h1.75v3.16a.62.62 0 0 1-.09.32L2.19 9.93A2.38 2.38 0 0 0 0 12.2a2.41 2.41 0 0 0 2.5 2.3A2.41 2.41 0 0 0 5 12.2h11V11a3.54 3.54 0 0 0-3.63-3.47zm0 1.25A2.29 2.29 0 0 1 14.75 11H10a2.29 2.29 0 0 1 2.37-2.22zM2.5 13.25a1.16 1.16 0 0 1-1.25-1.05 1.16 1.16 0 0 1 1.25-1 1.16 1.16 0 0 1 1.25 1 1.16 1.16 0 0 1-1.25 1.05zM4.59 11a2.38 2.38 0 0 0-1.06-.83L4.62 8.3 6 9.36a1.9 1.9 0 0 0 1.13.38H9A3.22 3.22 0 0 0 8.75 11z"/><path d="M14.75 1.5H11a1.25 1.25 0 0 0-1.3 1.25v3A1.25 1.25 0 0 0 11 7h3.8A1.25 1.25 0 0 0 16 5.75v-3a1.25 1.25 0 0 0-1.25-1.25zm0 4.25H11v-3h3.8zm-2.38 7.5a1.17 1.17 0 0 1-1.25-1.05H9.87a2.41 2.41 0 0 0 2.5 2.3 2.41 2.41 0 0 0 2.5-2.3h-1.25a1.16 1.16 0 0 1-1.25 1.05z"/></svg>