<svg xmlns="http://www.w3.org/2000/svg" width="16" height="16" viewBox="0 0 16 16"><path d="M4 8.75h-.88V2.5H1.88v6.25H1a1 1 0 0 0-1 1v1.75a1 1 0 0 0 1 1h.88v1h1.24v-1H4a1 1 0 0 0 1-1V9.75a1 1 0 0 0-1-1zm-.25 2.5h-2.5V10h2.5zm5.75-8h-.88V2.5H7.38v.75H6.5a1 1 0 0 0-1 1V6a1 1 0 0 0 1 1h.88v6.5h1.24V7h.88a1 1 0 0 0 1-1V4.25a1 1 0 0 0-1-1zm-.25 2.5h-2.5V4.5h2.5zM15 7.35h-.88V2.5h-1.24v4.85H12a1 1 0 0 0-1 1v1.75a1 1 0 0 0 1 1h.88v2.4h1.24v-2.4H15a1 1 0 0 0 1-1V8.35a1 1 0 0 0-1-1zm-.25 2.5h-2.5V8.6h2.5z"/></svg>