<svg xmlns="http://www.w3.org/2000/svg" width="160" height="160" viewBox="0 0 160 160"><path d="M85.75 155h-12.5V5h12.5zM38.197 47.004c6.755.17 12.178 5.7 12.178 12.496v41l-.004.322c-.168 6.648-5.526 12.006-12.174 12.174l-.322.004H17.5l-.322-.004c-6.648-.168-12.006-5.526-12.174-12.174L5 100.5v-41c0-6.796 5.423-12.325 12.178-12.496L17.5 47h20.375zm104.75 0c6.755.17 12.178 5.7 12.178 12.496v41l-.004.322c-.168 6.648-5.526 12.006-12.174 12.174l-.322.004H122.25l-.322-.004c-6.648-.168-12.006-5.526-12.174-12.174l-.004-.322v-41c0-6.796 5.423-12.325 12.178-12.496l.322-.004h20.375zM17.5 100.5h20.375v-41H17.5zm104.75 0h20.375v-41H122.25z"/></svg>