<svg width="16" height="16" viewBox="0 0 16 16" fill="currentColor" xmlns="http://www.w3.org/2000/svg">
<path d="M13.5941 3.76634C13.5941 3.34912 13.2793 3.0109 12.8911 3.0109H3.10892C2.72068 3.0109 2.40595 3.34912 2.40595 3.76634V12.2337C2.40603 12.6508 2.72073 12.9891 3.10892 12.9891H12.8911C13.2793 12.9891 13.594 12.6508 13.5941 12.2337V3.76634ZM15 12.2337C14.9999 13.4853 14.0558 14.5 12.8911 14.5H3.10892C1.94425 14.5 1.00008 13.4853 1 12.2337V3.76634C1 2.51468 1.9442 1.5 3.10892 1.5H12.8911C14.0558 1.5 15 2.51468 15 3.76634V12.2337Z"/>
</svg>