<svg xmlns="http://www.w3.org/2000/svg" width="16" height="16">
  <path fill="#0a0a0a" d="M13.5 6.75395 11 5.05659 7.68 7.53886 6 6.03772 2.5 8.48074v2.46266h11zm-1.25 2.9434h-8.5v-.57887L5.9 7.60754l.94.84377.77.68679.83-.61811 2.59-1.96227 1.22.82415zM3.3 6.52829c.44183 0 .8-.32945.8-.73585s-.35817-.73585-.8-.73585-.8.32945-.8.73585.35817.73585.8.73585"/>
  <path fill="#0a0a0a" d="M14.75 2.60376H1.25c-.331521 0-.649463.12921-.883883.35921C.131696 3.19297 0 3.50491 0 3.83018v8.33962c0 .3253.131696.6372.366117.8672.23442.23.552362.3592.883883.3592h13.5c.3315 0 .6495-.1292.8839-.3592S16 12.4951 16 12.1698V3.83018c0-.32527-.1317-.63721-.3661-.86721s-.5524-.35921-.8839-.35921m0 9.56604H1.25V3.83018h13.5z"/>
</svg>
