<svg xmlns="http://www.w3.org/2000/svg" width="16" height="16" viewBox="0 0 16 16"><path d="M9.647 1.375a2.17 2.17 0 0 1 1.519.618c.405.398.636.94.636 1.507v3.123h1.669a2.17 2.17 0 0 1 1.518.618c.406.398.636.94.636 1.507a.6.6 0 0 1-.013.125l-.764 3.75-.005.02c-.131.548-.388 1.056-.765 1.425-.37.363-.85.58-1.372.552v.001H7.353a2.95 2.95 0 0 1-1.87-.668 1.37 1.37 0 0 1-1.189.668h-1.53a1.4 1.4 0 0 1-.978-.398 1.37 1.37 0 0 1-.411-.976V7.998c0-.369.15-.72.411-.977a1.4 1.4 0 0 1 .979-.398h2.294c.649 0 1.27-.253 1.725-.7a2.34 2.34 0 0 0 .708-1.674V3.5c0-.567.23-1.11.636-1.507a2.17 2.17 0 0 1 1.52-.618m0 1.25a.92.92 0 0 0-.644.26.86.86 0 0 0-.26.615v.749c0 .965-.392 1.889-1.084 2.567A3.7 3.7 0 0 1 5.684 7.82v3.928l.007.16c.038.368.204.717.477.985.312.306.738.479 1.185.48h5.353l.052.002c.12.01.276-.032.445-.198.175-.172.335-.453.424-.824l.745-3.656a.86.86 0 0 0-.258-.562.92.92 0 0 0-.643-.261h-2.294a.625.625 0 0 1-.625-.625V3.5a.86.86 0 0 0-.261-.614.92.92 0 0 0-.644-.261M2.765 7.873a.15.15 0 0 0-.104.041.12.12 0 0 0-.036.084v5.25c0 .028.012.058.036.082a.15.15 0 0 0 .104.041h1.529a.15.15 0 0 0 .103-.04.12.12 0 0 0 .037-.084V7.873z"/></svg>