<svg xmlns="http://www.w3.org/2000/svg" width="16" height="16" viewBox="0 0 16 16"><path d="M13.5 6.754 11 5.057 7.68 7.539 6 6.038 2.5 8.48v2.462h11zm-1.25 2.943h-8.5v-.579l2.15-1.51.94.843.77.687.83-.618 2.59-1.962 1.22.824zM3.3 6.528c.442 0 .8-.33.8-.736s-.358-.735-.8-.735-.8.329-.8.735.358.736.8.736"/><path d="M14.75 2.604H1.25c-.332 0-.65.129-.884.359S0 3.505 0 3.83v8.34c0 .325.132.637.366.867.235.23.552.36.884.36h13.5c.332 0 .65-.13.884-.36s.366-.542.366-.867V3.83c0-.325-.132-.637-.366-.867s-.552-.36-.884-.36m0 9.567H1.25V3.83h13.5z"/></svg>