<svg xmlns="http://www.w3.org/2000/svg" width="16" height="16" viewBox="0 0 16 16"><path d="M6.853 14.624a2.17 2.17 0 0 1-1.519-.618 2.1 2.1 0 0 1-.636-1.507V9.376H3.03a2.17 2.17 0 0 1-1.518-.618A2.1 2.1 0 0 1 .875 7.25q0-.063.013-.125l.764-3.75.005-.02c.131-.548.388-1.056.765-1.426.37-.362.85-.579 1.372-.551v-.001h5.353c.685 0 1.346.237 1.87.668a1.37 1.37 0 0 1 1.19-.668h1.528a1.4 1.4 0 0 1 .979.398c.261.257.41.607.411.976V8c0 .368-.15.72-.411.976a1.4 1.4 0 0 1-.979.399h-2.294c-.649 0-1.27.252-1.725.699a2.35 2.35 0 0 0-.708 1.675v.749c0 .567-.23 1.11-.636 1.507a2.17 2.17 0 0 1-1.52.618m0-1.25a.92.92 0 0 0 .644-.261.86.86 0 0 0 .26-.614v-.75c0-.965.392-1.888 1.084-2.567a3.7 3.7 0 0 1 1.975-1.003V4.252l-.007-.16a1.6 1.6 0 0 0-.477-.985 1.7 1.7 0 0 0-1.185-.48H3.794l-.052-.002c-.12-.01-.276.032-.445.198-.175.171-.335.453-.424.824l-.745 3.655a.86.86 0 0 0 .258.563c.168.165.4.26.643.26h2.294c.345 0 .625.28.625.626v3.748c0 .228.093.449.261.614.169.165.4.26.644.26m6.882-5.248a.15.15 0 0 0 .104-.041.12.12 0 0 0 .036-.084V2.75a.12.12 0 0 0-.036-.082.15.15 0 0 0-.104-.041h-1.529a.15.15 0 0 0-.104.04.12.12 0 0 0-.036.084v5.374z"/></svg>