<svg width="16" height="16" viewBox="0 0 16 16" fill="none" xmlns="http://www.w3.org/2000/svg">
<rect width="16" height="16" fill="white"/>
<path d="M9.14746 1.37878C9.83206 1.37888 10.493 1.6165 11.0166 2.04675C11.0756 1.94956 11.1451 1.85813 11.2275 1.77722C11.4891 1.52084 11.8414 1.37878 12.2061 1.37878H13.7354C14.0999 1.3788 14.4524 1.52086 14.7139 1.77722C14.9755 2.03388 15.1248 2.38455 15.125 2.75281V8.00183C15.125 8.37037 14.9757 8.72161 14.7139 8.97839C14.4524 9.2348 14.1 9.37682 13.7354 9.37683H11.4414C10.792 9.37683 10.1713 9.62949 9.71582 10.076C9.26074 10.5222 9.00785 11.1253 9.00781 11.7509V12.4999C9.00781 13.0673 8.77728 13.6093 8.37207 14.0067C7.96714 14.4037 7.41999 14.6249 6.85254 14.6249C6.28523 14.6248 5.73882 14.4036 5.33398 14.0067C4.92872 13.6093 4.69824 13.0673 4.69824 12.4999V9.37683H3.0293C2.462 9.3768 1.91562 9.15551 1.51074 8.75867C1.10543 8.36124 0.875 7.81929 0.875 7.25183C0.875014 7.20994 0.879323 7.16787 0.887695 7.12683L1.65234 3.37781C1.65372 3.37112 1.65564 3.36394 1.65723 3.3573C1.78844 2.80892 2.04517 2.30087 2.42188 1.93152C2.79178 1.5689 3.2717 1.35239 3.79395 1.37976V1.37878H9.14746ZM3.74219 2.62585C3.62262 2.61589 3.46636 2.65794 3.29688 2.8241C3.12207 2.99549 2.96184 3.27713 2.87305 3.64832L2.12793 7.30359C2.14078 7.51297 2.23027 7.71362 2.38574 7.86609C2.55441 8.03137 2.78562 8.1268 3.0293 8.12683H5.32324C5.66838 8.12683 5.94817 8.40671 5.94824 8.75183V12.4999C5.94824 12.7277 6.04084 12.9492 6.20898 13.1141C6.3776 13.2795 6.60889 13.3748 6.85254 13.3749C7.09634 13.3749 7.32836 13.2795 7.49707 13.1141C7.66516 12.9492 7.75781 12.7277 7.75781 12.4999V11.7509C7.75785 10.7857 8.14868 9.8621 8.84082 9.18347C9.38269 8.65226 10.0745 8.3062 10.8164 8.18054V4.25281L10.8086 4.09363C10.7712 3.72476 10.6047 3.37566 10.332 3.10828C10.02 2.80239 9.59389 2.62889 9.14746 2.62878H3.79395L3.74219 2.62585ZM12.2061 2.62878C12.1651 2.62878 12.1278 2.64503 12.1025 2.6698C12.078 2.69398 12.0666 2.72403 12.0664 2.75281V8.12683H13.7354C13.7763 8.12682 13.8136 8.11061 13.8389 8.08582C13.8636 8.06149 13.875 8.0308 13.875 8.00183V2.75281C13.8748 2.72408 13.8633 2.69396 13.8389 2.6698C13.8136 2.64505 13.7763 2.6288 13.7354 2.62878H12.2061Z" fill="#0A0A0A"/>
</svg>
