<svg xmlns="http://www.w3.org/2000/svg" width="16" height="16" viewBox="0 0 16 16"><path d="M8.613 1.115c0-.34.285-.615.637-.615s.637.275.637.615c0 1.202.495 2.355 1.376 3.205a4.8 4.8 0 0 0 3.322 1.329v1.23a6.1 6.1 0 0 1-4.223-1.69 6 6 0 0 1-.475-.516v6.753a3.97 3.97 0 0 1-.713 2.258 4.2 4.2 0 0 1-1.902 1.505 4.4 4.4 0 0 1-2.447.232 4.3 4.3 0 0 1-2.17-1.118 4.05 4.05 0 0 1-1.158-2.093 3.95 3.95 0 0 1 .24-2.36 4.1 4.1 0 0 1 1.56-1.835 4.35 4.35 0 0 1 2.354-.689v1.23a3.04 3.04 0 0 0-1.645.482c-.487.313-.867.76-1.091 1.282a2.76 2.76 0 0 0-.169 1.65c.115.555.397 1.064.811 1.464s.942.671 1.516.782 1.17.053 1.712-.163a2.94 2.94 0 0 0 1.329-1.052c.316-.456.488-.984.498-1.53l.001-.053z"/></svg>