<svg xmlns="http://www.w3.org/2000/svg" width="16" height="16" viewBox="0 0 16 16"><path d="M15.17 7.36 13 4.92a1.25 1.25 0 0 0-.94-.42h-2V2.75A1.25 1.25 0 0 0 8.82 1.5H1.76A1.25 1.25 0 0 0 .51 2.75v8.5a1.25 1.25 0 0 0 1.25 1.25h.33a2.07 2.07 0 0 0 2.13 2 2.08 2.08 0 0 0 2.14-2H10a2.07 2.07 0 0 0 2.13 2 2.08 2.08 0 0 0 2.14-2 1.26 1.26 0 0 0 1.2-1.25V8.19a1.22 1.22 0 0 0-.3-.83zM4.22 13.25a.82.82 0 0 1-.88-.75.82.82 0 0 1 .88-.75.83.83 0 0 1 .89.75.83.83 0 0 1-.89.75zm4.6-7.58v5.58H5.89a2.17 2.17 0 0 0-1.67-.75 2.17 2.17 0 0 0-1.66.75h-.8v-8.5h7.06zm1.25.08h2l1.44 1.63h-3.44zm2.08 7.5a.82.82 0 0 1-.88-.75.82.82 0 0 1 .88-.75.83.83 0 0 1 .89.75.83.83 0 0 1-.89.75zm0-2.75a2.17 2.17 0 0 0-1.66.75h-.42V8.62h4.17v2.63h-.42a2.17 2.17 0 0 0-1.67-.75z"/></svg>