<svg xmlns="http://www.w3.org/2000/svg" width="16" height="16" viewBox="0 0 16 16"><path d="M5.1 7.93A2.87 2.87 0 0 0 7.87 5 2.88 2.88 0 0 0 5.1 2a2.88 2.88 0 0 0-2.78 3A2.88 2.88 0 0 0 5.1 7.93zm0-4.67A1.62 1.62 0 0 1 6.62 5 1.63 1.63 0 0 1 5.1 6.68 1.63 1.63 0 0 1 3.58 5 1.62 1.62 0 0 1 5.1 3.26zm7.19 5.05a2.39 2.39 0 0 0 2.3-2.46 2.39 2.39 0 0 0-2.3-2.47A2.39 2.39 0 0 0 10 5.85a2.39 2.39 0 0 0 2.29 2.46zm0-3.68a1.15 1.15 0 0 1 1.05 1.22 1.15 1.15 0 0 1-1.05 1.21 1.15 1.15 0 0 1-1.06-1.21 1.15 1.15 0 0 1 1.06-1.22zm-.07 4.93a3.85 3.85 0 0 0-3.07 1.51A5.21 5.21 0 0 0 5.1 9.18 5 5 0 0 0 0 14h1.25a3.72 3.72 0 0 1 3.85-3.57A3.71 3.71 0 0 1 8.94 14h1.25a4.5 4.5 0 0 0-.32-1.69 2.54 2.54 0 0 1 2.35-1.5 2.44 2.44 0 0 1 2.53 2.33V14H16v-.86a3.69 3.69 0 0 0-3.78-3.58z"/></svg>