<svg xmlns="http://www.w3.org/2000/svg" width="16" height="16" viewBox="0 0 16 16"><path d="M8 .5A7.77 7.77 0 0 0 0 8a7.77 7.77 0 0 0 8 7.5A7.77 7.77 0 0 0 16 8 7.77 7.77 0 0 0 8 .5zM5.16 13.67A2.84 2.84 0 0 1 8 11.51a2.82 2.82 0 0 1 2.84 2.16 7.24 7.24 0 0 1-5.68 0zm6.84-.61a4.09 4.09 0 0 0-4-2.77 4.09 4.09 0 0 0-3.95 2.78A6.14 6.14 0 0 1 1.25 8 6.52 6.52 0 0 1 8 1.75 6.52 6.52 0 0 1 14.75 8 6.11 6.11 0 0 1 12 13.06z"/><path d="M8.05 4.3A2.33 2.33 0 0 0 5.8 6.7a2.33 2.33 0 0 0 2.25 2.4 2.33 2.33 0 0 0 2.25-2.4 2.33 2.33 0 0 0-2.25-2.4zm0 3.55a1.08 1.08 0 0 1-1-1.15 1.08 1.08 0 0 1 1-1.15 1.08 1.08 0 0 1 1 1.15 1.08 1.08 0 0 1-1 1.15z"/></svg>