<svg xmlns="http://www.w3.org/2000/svg" width="16" height="16" viewBox="0 0 16 16"><path d="M.5 8.575v-1.25h15v1.25z"/><path fill-rule="evenodd" d="M11.3 4.12a1.25 1.25 0 0 1-1.25 1.217H5.918A1.25 1.25 0 0 1 4.7 4.12V2.018A1.25 1.25 0 0 1 5.918.8h4.132c.68 0 1.233.542 1.25 1.218zM5.95 2.05v2.037h4.1V2.05zm5.35 11.945a1.25 1.25 0 0 1-1.25 1.218h-4.1l-.032-.001A1.25 1.25 0 0 1 4.7 13.995v-2.103a1.25 1.25 0 0 1 1.218-1.216l.032-.001h4.1c.68 0 1.233.542 1.25 1.217zm-5.35-2.07v2.038h4.1v-2.038z"/></svg>