<svg xmlns="http://www.w3.org/2000/svg" xmlns:xlink="http://www.w3.org/1999/xlink" width="16" height="16">
  <g fill="#0a0a0a" clip-path="url(#a)">
    <path d="M.5 8.57518v-1.25h15v1.25z"/>
    <path fill-rule="evenodd" d="M11.2998 4.11932c-.0171.67547-.5704 1.21778-1.25 1.21778H5.91797c-.66475-.01683-1.20095-.55302-1.21777-1.21778V2.01776c.01682-.66475.55302-1.20095 1.21777-1.217773l4.13183.000001c.6796 0 1.2329.542312 1.25 1.217772zM5.9502 2.04999V4.0871h4.0996V2.04999zm5.3496 11.94491c-.0172.6754-.5705 1.2178-1.25 1.2178H5.95019l-.03222-.001c-.66469-.0168-1.20086-.5521-1.21778-1.2168v-2.1025c.01703-.6646.55315-1.2 1.21778-1.2168l.03222-.001h4.09961c.6795 0 1.2327.5425 1.25 1.2178zm-5.34961-2.0703v2.0381h4.09961v-2.0381z" clip-rule="evenodd"/>
  </g>
  <defs>
    <clipPath id="a">
      <path fill="#fff" d="M0 0h16v16H0z"/>
    </clipPath>
  </defs>
</svg>
