<svg width="16" height="16" viewBox="0 0 16 16" fill="none" xmlns="http://www.w3.org/2000/svg"><path d="M15.4404 6.7002V9.2002H14.1904V7.9502H12.3398V13.2002H13.8701V14.4502H9.57031V13.2002H11.0898V7.9502H9.25V9.2002H8V6.7002H15.4404ZM14.75 2.59961C15.0815 2.59961 15.3994 2.72908 15.6338 2.95898C15.8682 3.18893 15.9999 3.50099 16 3.82617V5.5H14.75V3.82617H4.9502V12.166H8V13.3926H1.25C0.918508 13.3926 0.600626 13.2632 0.366211 13.0332C0.131811 12.8032 6.43614e-06 12.4913 0 12.166V3.82617C5.91786e-05 3.50099 0.131843 3.18893 0.366211 2.95898C0.600617 2.72908 0.918549 2.59961 1.25 2.59961H14.75ZM1.25 12.166H3.7002V10.2002H1.25V12.166ZM1.25 8.9502H3.7002V6.90039H1.25V8.9502ZM1.25 5.65039H3.7002V3.82617H1.25V5.65039Z" fill="currentColor"/></svg>
