<svg width="16" height="16" viewBox="0 0 16 16" fill="none" xmlns="http://www.w3.org/2000/svg"><path d="M14.75 2.59961C15.4402 2.59961 15.9998 3.15943 16 3.84961V12.1504C15.9998 12.8406 15.4402 13.4004 14.75 13.4004H1.25L1.21777 13.3994C0.542443 13.3823 0.000207488 12.8298 0 12.1504V3.84961C0.000207979 3.17021 0.542443 2.61768 1.21777 2.60059L1.25 2.59961H14.75ZM1.25 12.1504H3.2002V10.2002H1.25V12.1504ZM4.4502 12.1504H11.6504V3.84961H4.4502V12.1504ZM12.9004 10.2002V12.1504H14.75V10.2002H12.9004ZM12.9004 6.90039V8.9502H14.75V6.90039H12.9004ZM1.25 8.9502H3.2002V6.90039H1.25V8.9502ZM12.9004 5.65039H14.75V3.84961H12.9004V5.65039ZM1.25 5.65039H3.2002V3.84961H1.25V5.65039Z" fill="currentColor"/></svg>
