<svg viewBox="0 0 244 60" xmlns="http://www.w3.org/2000/svg" fill="white"><path fill="#2577e9" d="M47.467 5h-.054c-6.986 0-13.6 2.72-18.56 7.573a20.78 20.78 0 0 0-8.106-1.653C9.333 10.92 0 20.2 0 31.667c0 11.466 9.28 20.746 20.747 20.746 2.773 0 5.546-.586 8.053-1.653 4.8 4.693 11.36 7.573 18.56 7.573 14.72 0 26.667-11.946 26.667-26.666C74.08 17 62.133 5 47.467 5Zm-.054 47.413c-11.413 0-20.746-9.28-20.746-20.746h-5.92c0 5.226 1.493 10.133 4.106 14.24-1.333.373-2.72.586-4.106.586-8.16 0-14.827-6.666-14.827-14.826S12.587 16.84 20.747 16.84c3.253 0 6.293 1.013 8.906 2.987 3.787 2.826 5.92 7.146 5.92 11.84h5.974c0-6.187-2.667-11.947-7.414-15.894 3.734-3.093 8.427-4.853 13.334-4.853 11.413 0 20.746 9.333 20.746 20.747-.053 11.413-9.333 20.746-20.8 20.746ZM88.36 46.667h5.413v-12.04c0-3.92 2.147-6.394 5.367-6.394 3.313 0 5.087 2.147 5.087 5.694v12.74h5.413V32.9c0-5.973-3.267-9.66-8.867-9.66-3.22 0-5.553 1.4-7 3.593V23.8H88.36v22.867ZM122.088 17.127c0-1.82-1.446-3.36-3.36-3.36-1.82 0-3.313 1.493-3.313 3.36a3.326 3.326 0 0 0 3.313 3.313c1.914 0 3.36-1.493 3.36-3.313Zm-6.02 6.673v22.867h5.414V23.8h-5.414ZM128.191 46.667h5.413V34.533c0-3.92 1.913-6.346 4.9-6.346 2.847 0 4.387 2.1 4.387 5.646v12.834h5.413V34.3c.047-3.733 1.96-6.113 4.9-6.113 2.847 0 4.387 2.1 4.387 5.46v13.02h5.413V32.62c0-5.74-3.033-9.38-8.307-9.38-3.78 0-6.393 2.053-7.606 4.247-1.26-2.66-3.64-4.247-6.954-4.247-3.126 0-5.273 1.4-6.533 3.593V23.8h-5.413v22.867ZM169.434 46.667h5.367V43.54c1.68 2.38 4.573 3.687 7.747 3.687 6.3 0 11.153-5.274 11.153-11.994 0-6.86-4.853-11.993-11.153-11.993-3.174 0-6.067 1.447-7.747 3.827V14h-5.367v32.667Zm18.854-11.434c0 3.92-2.987 7.094-6.86 7.094-3.874 0-6.86-3.174-6.86-7.094 0-3.92 2.986-7.093 6.86-7.093 3.873 0 6.86 3.173 6.86 7.093ZM208.813 47.227c6.347 0 10.174-3.827 10.174-10.407V23.8h-5.414v12.693c0 3.594-1.773 5.74-4.76 5.74-2.986 0-4.76-2.146-4.76-5.74V23.8h-5.413v13.02c0 6.58 3.827 10.407 10.173 10.407ZM227.777 39.107l-4.387 2.286c1.307 3.547 4.573 5.834 8.867 5.834 4.48 0 8.4-2.707 8.4-7.374 0-3.033-1.727-5.226-6.02-6.673l-2.707-.887c-1.727-.56-2.567-1.4-2.567-2.473 0-1.307 1.214-2.1 2.754-2.1 1.726 0 3.08 1.213 3.966 3.033l4.34-2.333c-1.446-3.173-4.573-5.18-8.306-5.18-4.294 0-7.887 2.707-7.887 7 0 3.173 1.96 5.367 5.833 6.627l2.754.886c1.82.56 2.613 1.214 2.613 2.474 0 1.633-1.4 2.38-3.08 2.38-2.053 0-3.78-1.4-4.573-3.5Z"></path></svg>
